<?xml version="1.0" encoding="utf-8"?>
<!-- Generator: Adobe Illustrator 16.0.0, SVG Export Plug-In . SVG Version: 6.00 Build 0)  -->
<!DOCTYPE svg PUBLIC "-//W3C//DTD SVG 1.1//EN" "http://www.w3.org/Graphics/SVG/1.1/DTD/svg11.dtd">
<svg version="1.1" id="Ebene_1" xmlns="http://www.w3.org/2000/svg" xmlns:xlink="http://www.w3.org/1999/xlink" x="0px" y="0px"
	 width="396.449px" height="354.33px" viewBox="0 0 396.449 354.33" enable-background="new 0 0 396.449 354.33"
	 xml:space="preserve">
<path fill="#FFFFFF" d="M3.805,354.32c0.13-35.479,29.942-48.845,67.687-65.772c10.314-4.633,20.911-9.388,31.738-14.936
	c-1.282-2.979-5.392-9.828-7.758-13.766c-6.814-11.363-10.962-18.551-11.101-22.679c-0.358-10.236,13.502-20.426,23.623-27.864
	c1.589-1.161,3.446-2.526,4.792-3.597c-0.802-1.076-1.64-2.228-2.462-3.41c-0.097,0.065-0.195,0.132-0.289,0.187
	c-4.058,2.687-10.847,7.183-19.182,7.183c-12.902,0-19.146-6.606-22.114-12.156c-6.387-11.945-3.245-28.862,3.234-39.887
	c-10.336-21.928-3.998-29.238,0.216-34.096c1.453-1.678,1.927-2.329,1.852-2.883c-0.375-2.758-0.911-5.357-1.43-7.868
	c-0.963-4.66-1.957-9.464-1.931-15.327c-0.055-1.154-0.162-5.4,0.751-7.696c1.747-4.387,4.458-6.358,6.436-7.8
	c2.124-1.544,2.839-2.064,2.8-5.437c-0.226-17.877,14.497-25.665,26.326-31.922l0.411-0.214c0.134-0.556,0.292-1.339,0.382-1.79
	c1.058-5.207,3.022-14.896,13.457-20.656c21.211-11.702,38.434-13.347,51.217-4.899c13.643-6.086,30.485-7.815,43.735-8.638
	c12.596-0.788,18.525,5.358,24.273,12.998c4.753-2.486,8.96-3.099,12.832-1.881c3.651,1.146,6.593,3.786,8.941,8.049
	c7.334-2.994,16.039-0.994,24.212,5.652c11.277,9.168,19.966,26.792,14.771,42.19c13.094,6.629,15.103,31.176,16.091,43.245
	l0.123,1.524c0.491,5.767-1.126,10.432-2.693,14.946c-0.845,2.455-1.644,4.754-1.978,6.981c0.036,0.029,0.075,0.059,0.116,0.09
	c0.147,0.115,0.297,0.228,0.412,0.33l1.115,0.926c5.553,4.605,8.082,6.708,10.326,15.695c2.128,8.533,2.232,21.761-4.506,30.956
	c-11.426,15.601-21.353,12.405-32.842,8.713l-0.163-0.056c-1.091-0.351-2.201-0.699-3.345-1.048c-1.215,1.7-2.047,2.964-2.628,3.888
	c16.813,8.658,26.563,14.077,30.117,20.961c3.99,7.713,0.303,15.461-6.391,29.532l-0.051,0.098
	c-2.235,4.703-4.778,10.044-7.563,16.456l-0.484,1.093c-0.467,1.057-1.505,3.427-2.287,5.297c2.875,1.449,8.349,3.87,14.992,6.813
	l0.129,0.051c21.028,9.296,52.802,23.332,65.015,33.949c15.094,13.11,17.52,32.567,17.904,38.22l0.009,0.191l-6.688,0.074
	l-0.009-0.392c-0.333-4.953-2.488-23.007-16.33-35.028c-16.241-14.106-71.579-34.382-79.636-39.049
	c-0.34-0.203-1.463-4.252-1.445-4.788c0.016-0.549,3.389-8.14,3.851-9.222c18.614-42.739,26.012-39.279-18.4-62.067
	c0.194-2.143,6.014-10.515,7.478-12.501c14.63,4.111,22.581,11.878,33.879-3.553c5.462-7.476,5.926-18.833,3.812-27.303
	c-2.032-8.134-3.715-9.11-10.005-14.353c-0.592-0.494-2.09-1.492-2.024-2.425c0.495-7.261,5.462-13.725,4.747-22.23
	c-0.912-10.549-2.553-38.355-16.156-41.867l-0.631-1.336c10.723-23.158-18.492-55.663-35.534-43.017
	c-4.06-10.428-10.684-13.118-20.958-6.224l-1.423-2.366c-5.787-7.782-10.477-12.48-21.012-11.823
	c-14.179,0.886-30.866,2.763-43.732,9.117c-14.266-11.026-33.672-4.266-48.206,3.755c-12.453,6.878-10.491,20.441-12.75,21.639
	C99.576,55.612,86.011,62.16,86.21,78.037c0.113,9.33-6.327,6.873-9.367,14.506c-0.66,1.648-0.473,6.18-0.473,6.18
	c-0.027,8.415,2.22,14.42,3.284,22.329c1.037,7.754-16.348,7.267-1.462,37.189c-10.796,16.159-12.494,45.802,13.513,45.802
	c10.367,0,19.094-9.235,21.198-9.121c1.861,2.975,4.702,8.969,6.828,11.766c-0.24,3.011-30.29,17.618-29.88,29.559
	c0.223,6.283,18.536,31.667,18.959,36.822l1.128,3.961C59.263,303.627,10.614,311.661,9.912,353.94l-0.009,0.388L3.805,354.32z
	 M116.161,283.056c2.226,0,6.308,7.581,7.234,9.063c0.738,1.199,8.051,11.74,9.995,15.076c4.108,6.982,15.708,21.783,15.687,22.708
	c0,0,0.724,1.89-0.012,2.599c-0.33,0.33-0.162,0.496-1.09,0.496c-0.922,0-3.564,0.213-5.827-2.017
	c-1.833-1.798-27.832-41.317-27.832-45.706C114.317,284.353,115.243,283.056,116.161,283.056z M137.303,279.772
	c0.573-0.325,1.701-0.008,1.701-0.008c7.927,10.4,15.389,22.503,26.488,27.818c2.133,1.017,4.726,2.122,6.344,3.735
	c2.214,2.272,7.587,10.961,7.587,14.285c0,3.236-3.604,3.33-4.625,3.33c-1.993,0-7.669-2.805-9.328-3.626
	c-16.79-8.688-24.235-28.56-28.588-42.782C136.885,282.525,136.352,280.304,137.303,279.772z M84.843,167.324
	c1.025-0.029,2.312-0.118,3.523,0.455c1.443,1.994,0.004,6.02,2.932,7.895c0.71,0.133,1.412,0.499,2.34,0.499
	c4.162,0,7.771-6.656,8.323-6.656c0.926,0,2.632,1.11,4.235,1.549c0,0,0.292,0.706,0,1.913c-0.265,1.082-7.996,10.636-9.332,11.548
	c-0.6,0.4-1.816,1.021-2.976,1.479c-1.375,0.598-3.396,0.897-4.319,0.897c-4.442,0-7.404-6.108-7.404-8.881
	C82.164,174.828,83.429,170.36,84.843,167.324z M202.013,293.082c2.84,0.796,3.514,6.572,3.514,8.516
	c0,3.198-2.689,13.492-7.398,13.492c-0.927,0-2.22-0.914-3.138-0.914c-2.223,0-6.848,4.621-6.848,6.1c0,2.87,5.262,3.337,9.08,3.868
	c1.967,0.282,5.108,0.024,5.108,0.024c3.732-2.921,2.594-8.673,6.358-12.104c0.731-0.333,1.455-0.493,2.886-0.832h1.252
	c0.137,0.13,4.535,6.918,4.535,8.674c0,8.043-19.278,12.391-22.741,12.391c-8.742,0-13.14-14.521-13.14-19.235
	c0-4.202,1.902-7.026,5.726-7.026c0.935,0,7.04,2.218,7.958,2.218c3.475,0,4.443-3.786,4.443-5.733c0-0.922-0.794-3.886-0.74-4.803
	C199.01,295.241,200.369,293.074,202.013,293.082z M261.344,286.454c1.12,0.041,0.887,2.313,0.887,3.06
	c0.103,4.483,0.103,2.127-0.105,5.167c-0.09,5.069-3.538,11.452-5.707,15.198c-2.089,3.604-14.088,22.048-21.858,22.048
	c-4.39,0-10.159-6.846-10.159-9.808c0-2.165,3.048-3.123,4.942-3.637c1.893-0.508,3.813-1.106,5.526-1.838
	c9.518-4.308,16.477-13.847,21.605-22.363c1.179-1.965,2.178-6.727,3.211-7.32C260.269,286.62,260.574,286.433,261.344,286.454z
	 M256.785,238.702c1.154,0.404,1.552,0.484,1.877,1.997c1.626,7.686,3.472,22.975,3.472,23.906c0,4.25-3.683,11.878-5.715,15.305
	c-2.731,4.532-7.934,11.803-12.46,15.196c-0.871,0.645-14.842,10.062-20.493,10.559c-3.999,0.354-10.566-6.112-12.248-8.575
	c-2.358-3.451-4.099-7.152-5.805-10.394c-1.213-2.262-3.222-5.824-3.222-6.745c0-1.386,1.605-2.535,2.375-2.68
	c0.375-0.049,9.072-1.471,12.177-2.812c14.095-6.104,32.629-16.903,37.726-33.043C254.794,240.356,255.508,239.472,256.785,238.702z
	 M214.403,197.816c0,2.963-2.31,5.364-4.992,5.364c-0.926,0-0.949,0.004-1.3-0.396c-0.423-0.502,0.032-1.686,0.032-1.686
	c-0.024-0.925,1.471-2.539,1.447-3.461c-0.019-1.686-0.367-2.759-0.659-6.256C212.908,192.937,214.403,194.07,214.403,197.816z
	 M227.912,149.168c2.122,0,3.471,2.033,3.52,3.518c0.051,1.464-2.039,3.145-2.965,3.145c-1.709,0-2.921-2.203-2.962-3.702
	C225.48,151.39,226.57,149.168,227.912,149.168z M231.601,136.965c0.928,0,1.79,0.689,2.991,0.831
	c3.146,0.366,9.05,3.417,9.05,7.487c0,0.925-0.39,2.679-1.277,4.251c-1.643-1.53-3.471-3.742-5.643-5.551h-0.99
	c-0.293,0.322-0.609-0.179-0.609,0.749c0,0.925,0.349,1.209,0.747,2.058c-0.43,0.481-0.373,0.899-1.31,0.899
	c-0.543,0-4.428-1.85-6.648-1.85c-3.876,0-8.884,2.959-9.99,2.959c-0.934,0-1.666-1.11-1.666-2.033c0-4.442,7.039-3.331,7.039-6.661
	c0-1.713,4.479-2.405,4.617-2.405C228.83,137.699,230.692,136.965,231.601,136.965z M275.82,124.384
	c3.691,0,9.616,5.173,9.616,8.879c0,1.014-1.039,2.399-1.642,2.449c-6.67,0.696-10.193,7.488-10.193,12.162
	c0,5.134,3.431,9.121,9.112,11.725c1.203,0.544,3.122,0.758,4.048,0.758c0.927,0,3.773-0.9,5.796-2.054
	c3.285-1.938,4.975-8.104,9.088-6.502c3.139,4.102,4.138,7.03,4.138,10.506c0,5.545-12.34,7.584-13.867,7.584
	c-5.828,0-14.15-3.583-19.279-9.687c-2.131-2.546-4-5.797-5.324-8.693c-1.521-3.274-2.595-7.385-2.595-9.745
	C264.717,137.604,269.431,124.384,275.82,124.384z M256.394,81.834c0.925,0,4.779,1.496,7.07,2.086
	c9.364,2.415,13.185,13.494,15.029,20.641c0.22,0.829,0.496,1.862,0.496,2.792c0,0.922-0.032,2.012-0.439,3.562
	c0,0-0.136,0.886-1.064,0.886c-2.219,0-4.219-1.73-6.804-4.878c-3.235-3.974-4.918-9.121-7.916-13.325
	c-1.756-2.405-4.341-4.619-6.512-6.549c-0.658-0.588-2.893-2.027-3.008-3.367c-0.058-0.752,0.105-1.153,0.408-1.395
	C254.247,81.809,255.476,81.834,256.394,81.834z M164.094,151.76c0,1.711-1.292,3.699-2.781,3.699c-2.678,0-3.141-2.125-3.141-3.328
	c0-2.222,1.162-3.332,3.328-3.332C164.005,148.798,164.094,151.063,164.094,151.76z M158.377,134.374
	c-1.162-0.156-2.52-0.24-5.576,0c-1.877,0.37-3.857,0.614-5.252,1.215c-3.877,1.757-8.616,7.382-8.616,11.361
	c0,1.295,1.113,3.33,3.328,3.33c2.968,0,5.186-5.547,8.142-5.547c0.932,0,0.8-0.057,1.126,0.253
	c-0.012,1.041-0.012,2.146,0.058,3.404c4.601-1.027,6.657-1.994,10.591-1.484c0.068-0.51,0.438-0.51,0.438-1.438
	c0-0.921-0.74-0.921-0.74-1.849c0-0.918-0.056-0.42,0.248-0.739h2.48c0.928,0.004,3.373,2.588,4.304,2.588
	c0.922,0,1.105-0.921,1.105-1.849C170.011,138.579,162.285,135.298,158.377,134.374z M249.923,184.498
	c0.327,5.911-0.373,9.995-0.373,10.917c0,0.932-0.927,5.085-1.626,7.639c-0.268,1.015-13.491,26.408-18.581,26.408h-4.39
	c-0.919,0-1.017-0.661-1.529-1.177c-0.601-0.601-1.024-1.975-1.024-3.089c0-1.109,0.334-2.205,0.008-3.274
	c-0.36-1.159-1.714-3.204-2.642-3.204c-3.787,0-6.015,2.969-8.136,2.969c-2.087,0-5.827-4.441-9.614-4.441
	c-4.677,0-5.786,5.92-9.071,5.92c-4.015,0-4.438-6.291-9.616-6.291c-4.389,0-3.835,4.443-9.06,4.443
	c-0.926,0-4.238-2.436-5.161-2.436c-3.698,0-4.17,5.638-4.45,6.295c0.649,0.271,0.918,1.338,1.836,1.338
	c0.927,0,3.8-2.704,4.732-2.704c0.918,0,5.339,4.443,6.808,4.488c1.657,0.049,7.717-2.802,8.639-2.802
	c0.932,0,4.918,1.925,5.85,1.925c4.019,0,7.73-3.146,11.156-3.146c2.726,0,7.397,1.895,7.397,4.813c0,5.315-5.233,7.399-8.69,7.399
	c-0.936,0-10.919-2.598-11.839-2.598c-1.942,0-10.172,0.512-10.172,3.697c0,2.226,5.501,3.748,6.465,3.708
	c2.001-0.101,8.52-1.48,9.438-1.48c5.172,0,13.687,1.243,13.687,8.88c0,8.738-9.013,12.205-15.029,12.205h-14.422
	c-9.531-0.172-34.111-24.459-36.272-26.297c0,0-3.826-5.336-3.826-6.258s-1.976-4.191-2.857-6.406
	c-0.553-1.385-1.248-2.604-1.857-4.462c-0.337-1.044-3.547-11.151-4.189-16.323c-0.313-2.502,1.198-7.368-0.883-7.957
	c-1.921,0.672-3.393,5.544-5.934,5.544c-0.927,0-4.129-1.55-4.499-2.051c-0.646-0.838-1.609-2.489-1.882-4.018
	c-0.462-2.535-0.837-7.247-0.837-8.162c0-9.901,7.397-4.32,8.137-14.811l-1.111-34.96c0-8.369,6.247-14.936,8.608-24.277
	c0.419-1.758-0.093-5.134-0.093-6.061c0-20.07,10.166-34.726,30.51-36.161c4.755-0.329,13.879-1.571,14.81-1.571
	c9.994,0,15.81,5.915,24.966,5.915c0.919,0,15.722-1.479,16.65-1.479c6.013,0,14.751,7.698,15.768,14.963
	c0.187,1.426,0.513,3.351,0.513,4.276c0,0.926-1.854,11.288-1.854,12.206c0,9.579,10.729,16.008,10.729,24.421
	c0,2.406-1.22,6.57-3.105,8.133c-1.283-0.277-4.047-2.51-4.924-2.875c-2.873-1.343-8.613-2.673-9.544-2.673
	c-9.152,0-20.637,5.918-25.68,10.681c-2.485,2.357-2.991,9.533-2.991,12.262c0,6.612,3.324,12.716,3.324,19.053
	c0,0.924-1.111,13.009-1.247,13.33c0.144,0.69,0.144,1.821,0.23,2.966c-0.088,0.402-0.084-0.016-0.084,0.909
	c0,0.923,1.845,7.397,1.845,8.32c0,4.44-2.732,7.957-7.397,7.957c-2.215,0-4.813-1.854-4.813-4.068c0-2.362-1.853-6.133-3.231-6.968
	c-0.609-0.364-1.019-0.434-1.942-0.434c-0.931,0-4.153,4.041-6.466,5.544c-1.899-0.991-1.24-3.233-3.137-3.233
	c-2.592,0-2.605,3.006-2.605,3.233c0,3.246,4.165,7.401,7.583,7.401c0.923,0,5.946-2.318,6.865-2.318
	c2.779,0,4.365,5.065,4.828,5.532c0.829,0.873,2.175,1.427,3.105,1.427c0.918,0,3.14-2.48,4.062-2.48
	c3.098,0,4.819,0.647,8.583,1.369c1.535,0.294,3.218,0.485,4.496-1.677c0.786-1.361,0.675-1.488,1.429-2.489
	c0.928-0.787,1.456-1.417,2.562-1.836c1.162-0.464,4.567-4.88,4.567-6.401c0-7.539-5.543-5.187-5.543-13.457v-5.648
	c0-0.918-2.22-10.305-2.22-11.233c0-3.286,5.928-0.236,5.928-4.07c0-1.479-6.301-4.95-6.301-7.027c0-2.641,5.918-5.267,6.919-5.543
	c0.958,1.268,0.487,0.826,0.487,2.028c0,3.515,1.365,7.594,6.419,9.116c0.416,0.121,2.089,0.317,3.018,0.317
	c0.926,0,2.99-0.885,4.332-1.952c2.209-1.751,3.853-6.473,3.356-9.025c0,0-0.292-0.494,0.635-0.494c2.219,0,4.812,2.913,4.812,3.89
	c0,2.817-4.586,9.104-7.179,9.658c-2.583,0.553-5.137,0.862-7.648,1.909c-0.683,0.944,0,1.299,0,1.299
	c1.738,1.081,2.991,0.775,2.991,2.3c0,0.922-1.854,2.589-1.854,3.514c0,2.729,1.983,3.33,2.95,3.33
	c3.243,0,11.08-4.888,12.833-8.775c0.783-1.713,0.49-5.282,0.49-6.208c0-1.575,1.951-4.733,2.422-4.979
	c1.343-0.674,3.536,0.952,4.098,3.08c0.455,1.85,0.876,5.412,0.876,6.34C253.248,172.757,249.598,177.735,249.923,184.498z
	 M172.744,162.474c0.975,0.622,2.957,0.012,2.957,0.012c0.923,0.004,4.854-4.434,5.78-4.434c1.256,0,1.478,1.016,1.478,2.222
	c0,6.564-4.433,7.348-4.433,12.204c0,3.286,5.658,12.352,7.28,12.563c1.839-2.513,1.595-5.669,1.595-7.572
	c0-0.921-1.844-9.464-1.849-11.648c-0.009-3.036,2.589-13.32,2.589-14.249c0-1.752-1.382-7.468-2.028-8.254
	c-3.934-4.763-10.843-9.061-15.469-11.42c-2.669-1.391-6.344-1.591-9.314-1.968c-0.382,0-0.727,0.376-3.708,0
	c-14.537,0.884-24.974,8.279-24.974,21.091c0,0.877-0.26,2.268,1.265,3.518c0.842,0.691,2.622,2.4,3.544,2.4
	c0.922,0,1.849-0.735,2.771-0.735c3.105,0,2.268,9.248,9.252,9.248c1.802,0,2.664-0.288,3.872-2.859
	c-4.064-0.933-5.906-4.496-5.906-7.315c0-1.483,2.358-5.367,4.813-5.367c0.922,0,0.922,0.37,1.157,0.317
	c-0.051,0.606,0.313,0.24,0.313,1.164c0,3.607-1.886,4.192,2,8.31c0.923,0.971,5.081,2.79,6.702,2.79
	c3.324,0,7.718-4.601,8.177-7.932c0.191-1.481-1.511-4.657,0.739-5.393c1.045-0.134,4.956,2.775,4.956,4.257
	c0,2.132-2.891,5.592-4.438,8.146C171.865,161.568,172.333,162.207,172.744,162.474z M247.143,38.179
	c0.927,0,1.465,0.152,2.293,0.759c0.43,0.403,0.536,0.612,0.504,1.082c-0.018,0.425-0.105,0.723-0.504,0.966
	c-3.715,1.189-12.461,12.946-13.202,15.139c-0.755,2.223-1.479,5.362-1.479,6.292c0,1.523,0.691,3.139,2.032,3.139
	c0.926,0,4.081-1.38,5.876-1.747c3.343-0.697,9.111-1.579,10.031-1.579c5.926,0,15.728,5.458,15.728,11.097
	c0,0.925-0.049,2.195-0.821,3.296c-0.771,1.059-2.738-1.901-3.876-2.477c-1.667-0.849-4.74-1.561-5.665-1.561
	c-8.975,0-10.03,5.922-16.283,5.922c-2.771,0-4.723-0.163-7.623-3.77c-1.487-1.8-0.912-4.982-2.114-7.435
	c-0.591-1.248-2.521-2.183-3.438-3.292c-0.876-1.061-1.835-2.659-2.258-4.135c-0.276-1.067-0.548-2.505-0.181-4.042
	c1.309-5.478,2.937-8.771,7.17-11.958C234.577,42.923,244.234,38.179,247.143,38.179z M152.63,33.741
	c0.917,0,2.402,0.368,3.324,0.368c0.928,0,5.32,1.877,7.312,3.083c1.662,1.014,3.438,2.668,5.515,3.455
	c2.73,1.062,7.893,1.975,8.819,1.975c1.617,0,11.331-1.851,11.47-1.851c3.788,0,12.172,5.397,14.799,8.953
	c0.896,1.206,1.285,3.813,1.285,4.739c0,0.926-0.365,3.513-0.365,4.438c0,1.707-2.227,4.435-3.884,4.435
	c-2.036,0-4.443-7.872-5.092-8.57c-3.378-3.791-13.912-9.185-19.326-9.185c-0.459,0-3.876,0.23-3.876,2.217
	c0,4.166,10.721,5.829,10.721,9.99c0,1.343-2.22,2.222-2.954,2.222c-2.544,0-9.048-5.376-10.247-5.839
	c-3.608-1.438-7.738-2.307-11.408-3.041c-4.474-0.108-5.173,0-5.519,0c-6.36,1.66-11.567,7.437-15.692,13.241
	c-1.04,1.465-0.975,4.887-1.901,4.887c-0.928,0-4.625-1.106-5.555-1.106c-7.856,0-10.865,5.458-10.865,12.387
	c0,1.946-0.969,4.146-2.259,5.673c-0.976,1.154-3.71,2.651-4.629,2.651c-2.682,0-4.437-2.036-4.437-3.509
	c0-0.926,0.109-1.665,0.37-2.589c0.248-0.889,2.304-4.832,3.828-6.781c6.567-8.32,15.643-15.721,25.495-20.904
	c1.618-0.829,4.219-0.695,5.927-1.48c0.929-0.417,7.661-4.92,7.661-7.093c0-0.925-1.715-2.417-2.805-2.778
	c0,0-10.985,0.491-11.939,0.321c-0.162-0.152-0.423-0.504-0.423-1.428c0-1.759,2.348-2.729,3.381-3.525
	C142.226,36.886,149.661,33.741,152.63,33.741z M141.936,231.216c0.041,0.135-0.042,0.616,0.557,2.119
	c0.379,0.946,0.675,1.83,0.675,2.184c0,0.929,2.021,4.498,3.036,6.574c2.265,4.585,5.25,9.637,8.495,13.658
	c3.779,4.765,11.323,10.829,16.37,14.108c6.653,4.298,15.343,6.584,22.231,6.627c1.114,0,2.459,0.291,4.032,0.772
	c0.556,0.688,0.963,1.361,0.963,2.284c0,5.409-17.205,26.453-23.129,26.453c-3.187,0-7.312-3.657-10.108-5.479
	c-8.689-5.646-17.65-15.521-22.873-24.21c-2.78-4.671-9.003-14.945-9.003-19.886c0-0.929,0.37-3.332,0.37-4.261
	c0-0.922,3.333-12.018,3.333-12.945c0-0.93,3.532-9.817,3.532-10.751L141.936,231.216z"/>
</svg>
