<?xml version="1.0" encoding="utf-8"?>
<!-- Generator: Adobe Illustrator 16.0.0, SVG Export Plug-In . SVG Version: 6.00 Build 0)  -->
<!DOCTYPE svg PUBLIC "-//W3C//DTD SVG 1.1//EN" "http://www.w3.org/Graphics/SVG/1.1/DTD/svg11.dtd">
<svg version="1.1" id="Ebene_1" xmlns="http://www.w3.org/2000/svg" xmlns:xlink="http://www.w3.org/1999/xlink" x="0px" y="0px"
	 width="512px" height="512px" viewBox="0 0 512 512" enable-background="new 0 0 512 512" xml:space="preserve">
<path fill="#FFFFFF" d="M255.992,5.603C117.702,5.603,5.59,117.706,5.59,255.991c0,65.735,25.362,125.518,66.783,170.195h51.812
	c0,0,87.901,1.803,102.152,1.613c57.522-0.819,103.657-48.292,102.829-105.814c-0.569-39.752-23.826-75.018-58.144-92.046
	l-41.533,71.938l-59.265-34.223L281.444,75.021l19.842,11.456l9.73-16.83L330.6,80.939l-9.731,16.839l19.842,11.456l-54.624,94.634
	c43.271,22.274,72.48,67.15,73.205,117.693c0.587,41.175-17.529,78.295-46.445,103.355c-3.088,2.675,98.033,0.846,127.743,0.242
	c40.856-44.557,65.821-103.942,65.821-169.169C506.41,117.706,394.299,5.603,255.992,5.603z M239.42,348.15l-17.767,30.762
	l-121.075-69.901l17.758-30.763L239.42,348.15z M108.8,458.52h294.401c-41.339,30.08-92.185,47.877-147.205,47.877
	C200.971,506.396,150.125,488.6,108.8,458.52z"/>
</svg>
