<?xml version="1.0" encoding="utf-8"?>
<!-- Generator: Adobe Illustrator 16.0.0, SVG Export Plug-In . SVG Version: 6.00 Build 0)  -->
<!DOCTYPE svg PUBLIC "-//W3C//DTD SVG 1.1//EN" "http://www.w3.org/Graphics/SVG/1.1/DTD/svg11.dtd">
<svg version="1.1" id="Ebene_1" xmlns="http://www.w3.org/2000/svg" xmlns:xlink="http://www.w3.org/1999/xlink" x="0px" y="0px"
	 width="386.986px" height="113.386px" viewBox="0 0 386.986 113.386" enable-background="new 0 0 386.986 113.386"
	 xml:space="preserve">
<g>
	<polygon points="108.293,35.434 108.293,32.692 95.445,32.692 95.445,35.077 105.521,35.077 105.521,35.136 95.087,51.115 
		95.087,54.215 108.532,54.215 108.532,51.83 97.621,51.83 	"/>
	<polygon points="115.58,44.377 123.331,44.377 123.331,41.992 115.58,41.992 115.58,35.076 123.926,35.076 123.926,32.692 
		112.837,32.692 112.837,54.215 124.105,54.215 124.105,51.831 115.58,51.831 	"/>
	<polygon points="141.013,51.115 140.953,51.115 132.576,32.692 128.701,32.692 128.701,54.215 131.145,54.215 131.145,35.553 
		131.205,35.553 139.701,54.215 143.457,54.215 143.457,32.692 141.013,32.692 	"/>
	<polygon points="147.698,35.077 153.362,35.077 153.362,54.215 156.104,54.215 156.104,35.077 161.768,35.077 161.768,32.692 
		147.698,32.692 	"/>
	<path d="M173.932,43.037v-0.06c2.534-0.447,3.935-2.385,3.935-4.919c0-2.683-1.342-5.366-5.157-5.366h-7.424v21.523h2.743v-9.897
		h3.22c0.924,0,3.041,0.119,3.249,2.743c0.239,2.861,0.06,5.664,0.835,7.154h2.862c-0.418-1.341-0.716-4.71-0.746-5.635
		C177.3,44.258,176.406,43.423,173.932,43.037z M172.143,41.933h-4.114v-6.856h4.144c2.117,0,2.892,1.729,2.892,3.279
		C175.065,40.234,174.111,41.933,172.143,41.933z"/>
	<path d="M193.34,46.464c0,4.71-1.431,5.904-4.024,5.904c-2.594,0-4.024-1.194-4.024-5.904V32.692h-2.743v13.653
		c0,5.962,2.206,8.318,6.767,8.318c4.561,0,6.767-2.356,6.767-8.318V32.692h-2.742V46.464z"/>
	<polygon points="216.751,32.692 211.266,50.757 211.207,50.757 205.78,32.692 201.339,32.692 201.339,54.215 203.902,54.215 
		203.902,35.076 203.963,35.076 209.865,54.215 212.458,54.215 218.479,35.076 218.54,35.076 218.54,54.215 221.282,54.215 
		221.282,32.692 	"/>
</g>
<g>
	<path fill="#477F20" d="M109.407,78.974c-1.264-0.176-1.334-0.526-1.334-3.054v-6.04c0-2.353-1.194-4.354-4.108-4.354
		c-1.791,0-3.441,0.878-4.916,1.791c-0.246,0-0.386-0.176-0.386-0.386c0-0.316,0-0.843,0.07-1.65
		c-0.07-0.176-0.246-0.246-0.386-0.246c-0.702,0.526-2.704,1.439-3.511,1.721c-0.176,0.105-0.176,0.491-0.035,0.632l0.316,0.211
		c0.948,0.632,0.948,0.808,0.948,2.177v6.146c0,2.527-0.036,2.878-1.334,3.054l-0.738,0.105c-0.246,0.175-0.176,0.772,0.07,0.878
		c0.983-0.07,2.037-0.105,3.301-0.105c1.229,0,2.247,0.035,3.195,0.105c0.246-0.105,0.316-0.703,0.07-0.878l-0.632-0.105
		c-1.264-0.211-1.334-0.526-1.334-3.054v-5.373c0-1.019,0.07-1.51,0.527-2.106c0.491-0.668,1.65-1.229,2.984-1.229
		c2.388,0,3.301,1.474,3.301,3.476v5.232c0,2.527-0.035,2.843-1.335,3.054l-0.667,0.105c-0.245,0.175-0.175,0.772,0.071,0.878
		c0.948-0.07,2.001-0.105,3.265-0.105c1.229,0,2.247,0.035,3.3,0.105c0.246-0.105,0.316-0.703,0.071-0.878L109.407,78.974z"/>
	<path fill="#477F20" d="M124.843,78.342c-0.106,0-0.281,0.141-0.457,0.245c-0.21,0.105-0.527,0.211-0.878,0.211
		c-1.369,0-1.685-1.439-1.615-3.055l0.211-6.109c0.105-2.634-1.124-4.108-3.651-4.108c-2.564,0-6.532,2.493-6.532,4.319
		c0,0.315,0.176,0.491,0.492,0.491c0.527,0,1.475-0.245,2.001-0.667c0.281-0.21,0.316-0.632,0.352-1.194
		c0.07-1.088,1.264-1.579,2.247-1.579c2.176,0,2.598,1.756,2.563,3.055l-0.036,1.615c0,0.526-0.069,0.843-0.596,1.018l-4.178,1.51
		c-2.248,0.808-2.915,1.615-2.915,2.985c0,0.982,0.422,1.86,1.089,2.457c0.597,0.526,1.439,0.808,2.457,0.808
		c0.983,0,1.756-0.456,2.529-0.878c0.702-0.386,1.123-0.702,1.369-0.702c0.211,0,0.421,0.281,0.562,0.491
		c0.597,0.772,1.439,1.089,2.282,1.089c1.72,0,2.949-1.369,2.949-1.545C125.088,78.553,124.983,78.342,124.843,78.342z
		 M119.365,76.235c-0.035,0.738-0.035,1.229-0.456,1.65c-0.351,0.352-1.44,0.878-2.142,0.878c-1.791,0-2.212-1.51-2.212-2.105
		c0-1.37,1.018-1.897,3.089-2.599c0.633-0.212,1.229-0.352,1.44-0.352s0.351,0.07,0.351,0.456L119.365,76.235z"/>
	<path fill="#477F20" d="M130.313,67.493h3.968c0.316-0.211,0.386-1.159-0.035-1.475h-3.898c-0.597,0-0.632-0.035-0.632-0.667v-1.58
		c-0.14-0.246-0.562-0.246-0.737-0.175c-0.351,0.701-1.019,1.649-1.475,2.07c-0.351,0.316-1.229,0.772-2.247,1.089
		c-0.14,0.211-0.106,0.597,0.105,0.737h0.983c0.703,0,0.738,0.07,0.738,1.02v8.039c0,2.107,0.632,3.792,3.651,3.792
		c1.791,0,3.055-0.878,3.687-1.615c0.07-0.21-0.07-0.597-0.351-0.597c-0.106,0-0.562,0.387-0.878,0.491
		c-0.281,0.105-0.597,0.176-0.948,0.176c-2.317,0-2.563-1.86-2.563-3.897v-6.565C129.681,67.598,129.716,67.493,130.313,67.493z"/>
	<path fill="#477F20" d="M150.781,78.553c-0.984,0-1.089-1.054-1.089-3.827v-5.899c0-1.299,0.035-2.388,0.105-3.055
		c-0.035-0.14-0.14-0.211-0.316-0.246c-0.772,0.353-2.703,0.598-4.108,0.633c-0.281,0.141-0.281,0.632-0.035,0.772l0.457,0.175
		c1.053,0.422,1.299,0.492,1.299,2.774v5.758c0,1.089-0.246,1.616-0.703,2.036c-0.772,0.668-1.896,1.054-2.844,1.054
		c-2.668,0-3.265-1.615-3.265-4.037v-5.864c0-1.721,0.035-2.458,0.105-3.055c-0.035-0.14-0.14-0.211-0.351-0.246
		c-0.773,0.281-2.142,0.598-3.757,0.633c-0.246,0.105-0.281,0.597-0.07,0.772l0.421,0.175c1.054,0.457,1.054,0.773,1.054,2.985
		v5.863c0,2.844,1.158,4.389,4.248,4.389c2.072,0,3.792-1.158,4.846-1.825c0.21,0,0.316,0.175,0.316,0.491v1.439
		c0.07,0.141,0.245,0.246,0.421,0.246c1.194-0.668,3.23-1.019,4.6-1.3c0.28-0.141,0.245-0.842,0.035-1.017
		C151.658,78.483,151.201,78.553,150.781,78.553z"/>
	<path fill="#477F20" d="M162.63,65.526c-1.299,0-2.633,1.089-3.862,2.107c-0.071-0.035-0.105-0.141-0.105-0.316v-2.036
		c0-0.141-0.106-0.211-0.282-0.246c-0.878,0.526-2.738,1.439-3.546,1.721c-0.175,0.105-0.175,0.491-0.035,0.632l0.316,0.211
		c0.948,0.632,0.948,0.808,0.948,2.177v6.146c0,2.527-0.035,2.843-1.334,3.054l-0.667,0.105c-0.246,0.175-0.176,0.772,0.07,0.878
		c0.913-0.07,1.966-0.105,3.23-0.105c1.229,0,2.247,0.035,3.898,0.105c0.245-0.105,0.316-0.703,0.07-0.878l-1.264-0.105
		c-1.335-0.105-1.404-0.526-1.404-3.054v-4.776c0-1.193,0.105-2.212,0.456-2.703c0.28-0.387,0.702-0.702,1.264-0.702
		c0.492,0,1.018,0.21,1.545,0.562c0.245,0.141,0.421,0.246,0.772,0.246c0.562,0,1.51-0.457,1.51-1.615
		C164.21,66.088,163.508,65.526,162.63,65.526z"/>
	<path fill="#477F20" d="M186.39,66.018c-0.878,0-1.755-0.034-2.774-0.105c-0.245,0.105-0.315,0.667-0.035,0.843l0.878,0.141
		c0.422,0.07,0.632,0.245,0.632,0.456c0,0.246-0.07,0.702-0.351,1.51c-0.527,1.475-1.931,5.197-2.388,6.215
		c-0.245,0.562-0.421,0.913-0.491,0.983c-0.106-0.07-0.246-0.457-0.456-0.983c-0.387-0.948-2.283-5.407-2.669-6.565
		c-0.421-1.229-0.492-1.335,0.913-1.615l0.737-0.141c0.211-0.176,0.211-0.737-0.105-0.843c-1.194,0.071-2.247,0.105-3.336,0.105
		c-0.913,0-2.037-0.034-2.914-0.105c-0.281,0.105-0.351,0.632-0.105,0.843l0.562,0.141c0.772,0.176,1.298,0.456,1.614,1.229
		c0.176,0.456,0.141,0.913-0.316,2.036l-1.72,4.249c-0.421,1.018-0.702,1.616-0.807,1.685c0-0.068-0.317-0.701-0.633-1.509
		l-2.177-5.372c-0.386-0.948-0.561-1.615-0.561-1.826s0.281-0.421,0.772-0.491l0.808-0.141c0.246-0.176,0.21-0.702-0.07-0.843
		c-0.949,0.071-1.967,0.105-3.055,0.105c-1.054,0-2.037-0.034-3.125-0.105c-0.316,0.141-0.281,0.667-0.105,0.843l0.562,0.141
		c0.877,0.21,1.298,0.562,2.106,2.527l3.23,7.937c0.281,0.736,0.843,2.176,1.054,2.913c0.105,0.105,0.28,0.141,0.421,0.141
		c0.175,0,0.316-0.035,0.421-0.141c0.281-0.808,0.773-2.071,1.405-3.58l1.825-4.39c0.247-0.632,0.738-1.721,0.773-1.721
		s0.562,1.158,0.808,1.791l1.685,4.037c0.597,1.405,1.229,3.23,1.44,3.862c0.105,0.105,0.245,0.141,0.386,0.141
		c0.176,0,0.316-0.035,0.456-0.141c0.281-0.912,0.702-1.931,1.194-3.194c0.667-1.791,2.353-6.005,3.3-7.97
		c0.738-1.546,1.054-2.037,1.896-2.213l0.703-0.141c0.211-0.176,0.175-0.702-0.105-0.843C187.9,65.984,187.057,66.018,186.39,66.018
		z"/>
	<path fill="#477F20" d="M192.858,61.594c0.983,0,1.86-0.563,1.86-1.826c0-0.983-0.701-1.826-1.754-1.826
		c-1.054,0-1.896,0.737-1.896,1.896C191.068,60.788,191.77,61.594,192.858,61.594z"/>
	<path fill="#477F20" d="M195.738,78.974c-1.265-0.176-1.335-0.526-1.335-3.055v-6.32c0-1.439,0.07-3.125,0.141-4.353
		c-0.035-0.142-0.176-0.212-0.351-0.212c-0.809,0.526-2.809,1.439-3.617,1.721c-0.175,0.105-0.175,0.492-0.035,0.632l0.316,0.211
		c0.948,0.632,0.948,0.808,0.948,2.177v6.145c0,2.528-0.035,2.879-1.334,3.055l-0.737,0.106c-0.246,0.174-0.176,0.771,0.069,0.877
		c0.984-0.07,2.037-0.105,3.301-0.105c1.229,0,2.247,0.035,3.301,0.105c0.246-0.105,0.314-0.703,0.07-0.877L195.738,78.974z"/>
	<path fill="#477F20" d="M203.775,71.6c-1.23-0.701-2.704-1.474-2.704-2.914c0-1.264,0.878-2.142,2.247-2.142
		c1.439,0,2.492,1.019,3.09,2.563c0.176,0.211,0.702,0.14,0.843-0.105c0-0.947-0.246-2.071-0.563-2.844
		c-0.315-0.281-1.614-0.633-3.09-0.633c-2.668,0-4.774,1.44-4.774,4.003c0,1.932,1.438,3.16,3.476,4.318
		c1.299,0.738,2.703,1.615,2.703,3.231c0,1.509-1.088,2.247-2.352,2.247c-2.003,0-3.125-1.686-3.723-3.617
		c-0.176-0.21-0.632-0.176-0.807,0.035c-0.071,1.159,0.14,2.879,0.421,3.547c0.878,0.702,2.105,1.053,3.757,1.053
		c2.598,0,5.056-1.334,5.056-4.003C207.355,73.847,205.636,72.654,203.775,71.6z"/>
	<path fill="#477F20" d="M214.813,71.6c-1.228-0.701-2.703-1.474-2.703-2.914c0-1.264,0.878-2.142,2.247-2.142
		c1.439,0,2.493,1.019,3.09,2.563c0.176,0.211,0.702,0.14,0.843-0.105c0-0.947-0.245-2.071-0.562-2.844
		c-0.316-0.281-1.616-0.633-3.09-0.633c-2.669,0-4.775,1.44-4.775,4.003c0,1.932,1.439,3.16,3.477,4.318
		c1.299,0.738,2.703,1.615,2.703,3.231c0,1.509-1.089,2.247-2.353,2.247c-2.002,0-3.125-1.686-3.722-3.617
		c-0.176-0.21-0.632-0.176-0.808,0.035c-0.07,1.159,0.141,2.879,0.421,3.547c0.878,0.702,2.106,1.053,3.758,1.053
		c2.598,0,5.056-1.334,5.056-4.003C218.396,73.847,216.675,72.654,214.813,71.6z"/>
	<path fill="#477F20" d="M231.604,76.657c-1.088,1.369-2.071,1.721-3.229,1.721c-3.757,0-5.829-3.02-5.829-6.565
		c0-0.879,0.035-0.948,0.948-0.948h6.496c1.474,0,1.966-0.035,2.07-0.246c0.07-0.141,0.142-0.422,0.142-0.912
		c0-2.107-1.967-4.18-4.986-4.18c-4.213,0-7.058,3.617-7.058,7.936c0,1.545,0.422,3.195,1.475,4.564
		c1.019,1.334,2.809,2.317,5.091,2.317c1.826,0,4.354-0.878,5.514-3.264C232.202,76.762,231.956,76.551,231.604,76.657z
		 M226.83,66.581c2.036,0,2.703,1.228,2.703,2.211c0,0.457-0.105,0.597-0.211,0.668c-0.28,0.21-1.054,0.351-3.651,0.351h-2.493
		c-0.246,0-0.246-0.104-0.246-0.176C222.967,68.475,224.758,66.581,226.83,66.581z"/>
	<path fill="#477F20" d="M248.876,78.974c-1.264-0.176-1.334-0.526-1.334-3.054v-6.04c0-2.353-1.193-4.354-4.107-4.354
		c-1.791,0-3.441,0.878-4.916,1.791c-0.246,0-0.387-0.176-0.387-0.386c0-0.316,0-0.843,0.07-1.65
		c-0.07-0.176-0.245-0.246-0.386-0.246c-0.702,0.526-2.703,1.439-3.511,1.721c-0.177,0.105-0.177,0.491-0.035,0.632l0.315,0.211
		c0.948,0.632,0.948,0.808,0.948,2.177v6.146c0,2.527-0.035,2.878-1.334,3.054l-0.738,0.105c-0.245,0.175-0.175,0.772,0.071,0.878
		c0.982-0.07,2.036-0.105,3.3-0.105c1.229,0,2.247,0.035,3.195,0.105c0.246-0.105,0.315-0.703,0.07-0.878l-0.632-0.105
		c-1.265-0.211-1.335-0.526-1.335-3.054v-5.373c0-1.019,0.07-1.51,0.527-2.106c0.491-0.668,1.65-1.229,2.984-1.229
		c2.388,0,3.301,1.474,3.301,3.476v5.232c0,2.527-0.035,2.843-1.334,3.054l-0.668,0.105c-0.245,0.175-0.175,0.772,0.071,0.878
		c0.947-0.07,2.001-0.105,3.265-0.105c1.229,0,2.247,0.035,3.3,0.105c0.246-0.105,0.316-0.703,0.071-0.878L248.876,78.974z"/>
	<path fill="#477F20" d="M256.952,71.6c-1.229-0.701-2.703-1.474-2.703-2.914c0-1.264,0.878-2.142,2.247-2.142
		c1.439,0,2.493,1.019,3.09,2.563c0.176,0.211,0.702,0.14,0.843-0.105c0-0.947-0.245-2.071-0.562-2.844
		c-0.316-0.281-1.616-0.633-3.09-0.633c-2.669,0-4.775,1.44-4.775,4.003c0,1.932,1.439,3.16,3.477,4.318
		c1.299,0.738,2.703,1.615,2.703,3.231c0,1.509-1.089,2.247-2.353,2.247c-2.002,0-3.125-1.686-3.722-3.617
		c-0.176-0.21-0.632-0.176-0.808,0.035c-0.07,1.159,0.141,2.879,0.421,3.547c0.878,0.702,2.106,1.053,3.758,1.053
		c2.598,0,5.056-1.334,5.056-4.003C260.534,73.847,258.813,72.654,256.952,71.6z"/>
	<path fill="#477F20" d="M274.361,76.271c-0.808,1.193-1.86,2.106-3.897,2.106c-3.757,0-5.653-3.266-5.653-6.004
		c0-3.722,2.388-5.653,4.846-5.653c1.439,0,2.738,0.913,3.512,1.86c0.14,0.176,0.315,0.246,0.491,0.246
		c0.421,0,0.772-0.667,0.772-1.299c0-0.597-0.246-1.159-0.527-1.404c-0.947-0.422-2.316-0.598-3.125-0.598
		c-5.828,0-8.496,4.038-8.496,7.83c0,2.282,0.808,4.003,2.036,5.197c1.229,1.193,2.949,1.79,4.811,1.79
		c2.036,0,4.67-0.983,5.863-3.581C274.958,76.446,274.642,76.201,274.361,76.271z"/>
	<path fill="#477F20" d="M291.194,78.974c-1.264-0.141-1.335-0.526-1.335-3.055v-5.864c0-2.457-1.193-4.528-4.529-4.528
		c-1.79,0-3.476,0.842-4.739,1.825c-0.106-0.07-0.141-0.352-0.141-0.667v-7.373c0-1.545,0.07-3.301,0.105-4.354
		c-0.071-0.14-0.211-0.211-0.351-0.211c-1.265,0.667-2.915,1.195-3.793,1.475c-0.176,0.105-0.176,0.598,0,0.703l0.352,0.21
		c1.053,0.633,1.088,0.843,1.088,2.914v15.871c0,2.528-0.035,2.914-1.334,3.055l-0.878,0.105c-0.246,0.175-0.175,0.772,0.07,0.878
		c1.124-0.07,2.177-0.105,3.44-0.105c1.229,0,2.247,0.035,3.301,0.105c0.246-0.105,0.316-0.737,0.07-0.878l-0.737-0.105
		c-1.264-0.176-1.334-0.526-1.334-3.055V70.02c0-1.229,0.105-1.404,0.737-1.931s1.544-0.948,2.738-0.948
		c2.248,0,3.336,1.512,3.336,3.759v5.02c0,2.528-0.035,2.844-1.334,3.055l-0.702,0.105c-0.246,0.175-0.176,0.772,0.07,0.878
		c0.947-0.07,2.001-0.105,3.265-0.105c1.229,0,2.247,0.035,3.511,0.105c0.246-0.105,0.316-0.703,0.071-0.878L291.194,78.974z"/>
	<path fill="#477F20" d="M306.725,78.342c-0.105,0-0.28,0.141-0.457,0.245c-0.21,0.105-0.526,0.211-0.878,0.211
		c-1.369,0-1.685-1.439-1.615-3.055l0.212-6.109c0.104-2.634-1.124-4.108-3.651-4.108c-2.564,0-6.532,2.493-6.532,4.319
		c0,0.315,0.176,0.491,0.492,0.491c0.527,0,1.475-0.245,2.001-0.667c0.281-0.21,0.316-0.632,0.352-1.194
		c0.07-1.088,1.265-1.579,2.247-1.579c2.177,0,2.599,1.756,2.563,3.055l-0.036,1.615c0,0.526-0.069,0.843-0.596,1.018l-4.179,1.51
		c-2.248,0.808-2.915,1.615-2.915,2.985c0,0.982,0.423,1.86,1.09,2.457c0.597,0.526,1.438,0.808,2.457,0.808
		c0.983,0,1.756-0.456,2.528-0.878c0.702-0.386,1.123-0.702,1.369-0.702c0.211,0,0.421,0.281,0.563,0.491
		c0.597,0.772,1.438,1.089,2.281,1.089c1.721,0,2.949-1.369,2.949-1.545C306.97,78.553,306.865,78.342,306.725,78.342z
		 M301.247,76.235c-0.035,0.738-0.035,1.229-0.456,1.65c-0.352,0.352-1.44,0.878-2.143,0.878c-1.791,0-2.212-1.51-2.212-2.105
		c0-1.37,1.019-1.897,3.091-2.599c0.632-0.212,1.228-0.352,1.438-0.352s0.351,0.07,0.351,0.456L301.247,76.235z"/>
	<path fill="#477F20" d="M313.803,58.083c0.527-1.264,1.405-1.931,2.493-1.931c1.159,0,2.142,0.773,2.809,1.545
		c0.246,0.28,0.457,0.421,0.844,0.421c0.667,0,1.334-0.562,1.334-1.264c0-1.264-1.58-2.107-3.441-2.107
		c-3.476,0-5.442,2.459-6.32,4.46c-0.843,1.966-1.088,4.143-1.088,6.181c0,0.35-0.246,0.561-0.526,0.701l-1.511,0.737
		c-0.141,0.21-0.104,0.526,0.106,0.667h1.229c0.702,0,0.702,0.07,0.702,1.02v7.407c0,2.528-0.035,2.879-1.335,3.055l-0.807,0.105
		c-0.246,0.175-0.176,0.772,0.07,0.878c1.054-0.069,2.106-0.105,3.37-0.105c1.229,0,2.247,0.036,3.827,0.105
		c0.246-0.105,0.316-0.703,0.07-0.878l-1.264-0.105c-1.265-0.105-1.334-0.526-1.334-3.055v-7.407c0-0.949,0-1.02,0.597-1.02h3.757
		c0.386-0.141,0.632-1.124,0.245-1.475h-4.002c-0.597,0-0.597-0.035-0.597-0.983v-1.019
		C313.031,62.262,313.171,59.698,313.803,58.083z"/>
	<path fill="#477F20" d="M324.063,67.493h3.969c0.315-0.211,0.386-1.159-0.035-1.475h-3.898c-0.597,0-0.632-0.035-0.632-0.667v-1.58
		c-0.14-0.246-0.562-0.246-0.737-0.175c-0.351,0.701-1.019,1.649-1.475,2.07c-0.351,0.316-1.229,0.772-2.247,1.089
		c-0.14,0.211-0.105,0.597,0.105,0.737h0.982c0.703,0,0.738,0.07,0.738,1.02v8.039c0,2.107,0.632,3.792,3.651,3.792
		c1.791,0,3.055-0.878,3.687-1.615c0.07-0.21-0.07-0.597-0.351-0.597c-0.106,0-0.563,0.387-0.878,0.491
		c-0.281,0.105-0.598,0.176-0.948,0.176c-2.317,0-2.563-1.86-2.563-3.897v-6.565C323.431,67.598,323.466,67.493,324.063,67.493z"/>
	<path fill="#477F20" d="M340.436,76.657c-1.089,1.369-2.071,1.721-3.229,1.721c-3.757,0-5.829-3.02-5.829-6.565
		c0-0.879,0.035-0.948,0.948-0.948h6.495c1.475,0,1.967-0.035,2.071-0.246c0.07-0.141,0.142-0.422,0.142-0.912
		c0-2.107-1.967-4.18-4.986-4.18c-4.214,0-7.058,3.617-7.058,7.936c0,1.545,0.422,3.195,1.475,4.564
		c1.019,1.334,2.81,2.317,5.091,2.317c1.826,0,4.354-0.878,5.514-3.264C341.033,76.762,340.787,76.551,340.436,76.657z
		 M335.661,66.581c2.036,0,2.703,1.228,2.703,2.211c0,0.457-0.105,0.597-0.211,0.668c-0.28,0.21-1.054,0.351-3.651,0.351h-2.493
		c-0.246,0-0.246-0.104-0.246-0.176C331.798,68.475,333.589,66.581,335.661,66.581z"/>
	<path fill="#477F20" d="M358.48,79.08l-0.773-0.105c-1.264-0.176-1.334-0.526-1.334-3.054v-6.04c0-2.353-1.193-4.354-4.107-4.354
		c-1.791,0-3.441,0.878-4.916,1.791c-0.246,0-0.387-0.176-0.387-0.386c0-0.316,0-0.843,0.07-1.65
		c-0.07-0.176-0.246-0.246-0.386-0.246c-0.702,0.526-2.704,1.439-3.512,1.721c-0.176,0.105-0.176,0.491-0.034,0.632l0.315,0.211
		c0.948,0.632,0.948,0.808,0.948,2.177v6.146c0,2.527-0.036,2.878-1.334,3.054l-0.738,0.105c-0.246,0.175-0.176,0.772,0.07,0.878
		c0.982-0.07,2.037-0.105,3.301-0.105c1.229,0,2.247,0.035,3.195,0.105c0.246-0.105,0.315-0.703,0.07-0.878l-0.633-0.105
		c-1.264-0.211-1.334-0.526-1.334-3.054v-5.373c0-1.019,0.07-1.51,0.527-2.106c0.491-0.668,1.65-1.229,2.984-1.229
		c2.388,0,3.301,1.474,3.301,3.476v5.232c0,2.527-0.035,2.843-1.335,3.054l-0.667,0.105c-0.245,0.175-0.175,0.772,0.07,0.878
		c0.948-0.07,2.001-0.105,3.266-0.105c1.229,0,2.247,0.035,3.3,0.105C358.655,79.852,358.726,79.254,358.48,79.08z"/>
	<path fill="#477F20" d="M56.699,28.348c-15.655,0-28.346,12.691-28.346,28.345c0,7.442,2.871,14.209,7.56,19.267h5.865
		c0,0,9.951,0.204,11.564,0.183c6.512-0.093,11.734-5.467,11.641-11.979c-0.065-4.5-2.698-8.492-6.582-10.42l-4.702,8.144
		l-6.709-3.874l12.59-21.807l2.247,1.297l1.1-1.906l2.217,1.279l-1.101,1.906l2.246,1.297l-6.184,10.713
		c4.898,2.521,8.206,7.602,8.288,13.323c0.067,4.661-1.985,8.863-5.258,11.7c-0.35,0.303,11.097,0.096,14.46,0.027
		c4.626-5.044,7.451-11.767,7.451-19.151C85.046,41.039,72.355,28.348,56.699,28.348z M54.823,67.125l-2.011,3.482l-13.706-7.913
		l2.01-3.482L54.823,67.125z M40.037,79.62h33.326c-4.678,3.405-10.434,5.42-16.663,5.42S44.715,83.025,40.037,79.62z"/>
</g>
</svg>
