<?xml version="1.0" encoding="utf-8"?>
<!-- Generator: Adobe Illustrator 16.0.0, SVG Export Plug-In . SVG Version: 6.00 Build 0)  -->
<!DOCTYPE svg PUBLIC "-//W3C//DTD SVG 1.1//EN" "http://www.w3.org/Graphics/SVG/1.1/DTD/svg11.dtd">
<svg version="1.1" id="Ebene_1" xmlns="http://www.w3.org/2000/svg" xmlns:xlink="http://www.w3.org/1999/xlink" x="0px" y="0px"
	 width="328.536px" height="85px" viewBox="20.732 17.699 328.536 85" enable-background="new 20.732 17.699 328.536 85"
	 xml:space="preserve">
<g>
	<g>
		<path fill="#00AADA" d="M69.727,75.809c-0.729-0.203-0.729-1.518,0-1.816c4.579-1.719,7.995-2.83,7.995-14.143V32.777
			L53.007,57.729c-0.943,0.908-1.6,1.211-2.616,0.1L26.766,30.856V67.93c0,7.07,1.672,9.091,7.194,12.323
			c0.729,0.403,0.729,1.819,0,2.122c-5.378-1.92-8.575-2.627-13.229-3.939c0.145-2.322,0.508-4.748,0.508-7.07V24.997
			c0-1.11-0.071-2.122-0.145-3.938c-0.073-0.809,0.727-1.313,1.524-0.405l25.152,29.194c0.872,1.01,1.525,1.01,2.397,0.101
			l28.713-28.688c0.729-0.708,1.382,0.1,1.382,0.808c-0.146,2.425-0.146,4.951-0.146,7.375v45.759L69.727,75.809z M97.682,52.153
			c0.945-0.316,1.071-0.883,1.071-1.83l0.063-2.904c0.063-2.336-0.694-5.492-4.608-5.492c-1.768,0-3.913,0.885-4.04,2.842
			c-0.063,1.01-0.126,1.768-0.631,2.145c-0.947,0.758-2.65,1.201-3.599,1.201c-0.567,0-0.884-0.316-0.884-0.885
			c0-3.283,7.134-7.764,11.741-7.764c4.545,0,6.754,2.65,6.564,7.385l-0.379,10.983c-0.126,2.904,0.441,5.492,2.904,5.492
			c0.631,0,1.198-0.188,1.577-0.379c0.315-0.188,0.632-0.442,0.82-0.442c0.253,0,0.442,0.379,0.442,0.821
			c0,0.314-2.21,2.777-5.304,2.777c-1.516,0-3.029-0.568-4.104-1.957c-0.252-0.379-0.631-0.885-1.01-0.885
			c-0.442,0-1.199,0.568-2.462,1.264c-1.39,0.758-2.777,1.578-4.545,1.578c-1.831,0-3.347-0.506-4.42-1.453
			c-1.198-1.072-1.957-2.65-1.957-4.418c0-2.461,1.199-3.914,5.239-5.365L97.682,52.153z M93.768,63.262
			c1.263,0,3.22-0.945,3.851-1.578c0.758-0.758,0.758-1.641,0.82-2.967l0.127-3.724c0-0.693-0.253-0.82-0.632-0.82
			s-1.452,0.254-2.588,0.633c-3.726,1.263-5.557,2.208-5.557,4.669C89.79,60.549,90.548,63.262,93.768,63.262z M119.589,43
			c-1.072,0-1.137,0.189-1.137,1.514V56.32c0,3.662,0.442,7.006,4.608,7.006c0.631,0,1.198-0.127,1.704-0.315
			c0.567-0.188,1.389-0.883,1.577-0.883c0.506,0,0.759,0.692,0.633,1.071c-1.138,1.326-3.409,2.904-6.629,2.904
			c-5.43,0-6.564-3.031-6.564-6.818V44.831c0-1.705-0.063-1.83-1.326-1.83h-1.768c-0.379-0.254-0.441-0.947-0.189-1.326
			c1.831-0.568,3.409-1.389,4.04-1.957c0.821-0.758,2.021-2.463,2.651-3.725c0.314-0.127,1.073-0.127,1.326,0.316v2.84
			c0,1.137,0.063,1.199,1.136,1.199h7.007c0.758,0.568,0.632,2.273,0.063,2.652L119.589,43L119.589,43z M133.162,29.618
			c0-3.725-0.063-4.104-1.957-5.24l-0.631-0.379c-0.315-0.189-0.315-1.073,0-1.262c1.578-0.506,4.545-1.452,6.817-2.651
			c0.253,0,0.505,0.126,0.631,0.379c-0.063,1.894-0.188,5.05-0.188,7.828v13.256c0,0.568,0.063,1.074,0.252,1.199
			c2.272-1.768,5.304-3.281,8.522-3.281c5.996,0,8.143,3.725,8.143,8.143V58.15c0,4.545,0.126,5.24,2.399,5.492l1.704,0.189
			c0.44,0.316,0.314,1.389-0.126,1.578c-2.272-0.125-4.104-0.189-6.313-0.189c-2.272,0-4.167,0.064-5.871,0.189
			c-0.441-0.189-0.567-1.262-0.126-1.578l1.263-0.189c2.336-0.379,2.398-0.947,2.398-5.492v-9.025c0-4.041-1.957-6.756-5.997-6.756
			c-2.146,0-3.787,0.758-4.924,1.705c-1.137,0.947-1.325,1.262-1.325,3.473V58.15c0,4.545,0.126,5.178,2.398,5.492l1.325,0.189
			c0.441,0.252,0.315,1.389-0.126,1.578c-1.895-0.125-3.726-0.189-5.935-0.189c-2.271,0-4.166,0.064-6.187,0.189
			c-0.441-0.189-0.568-1.262-0.126-1.578l1.577-0.189c2.336-0.252,2.398-0.947,2.398-5.492V29.618H133.162z M168.327,49.059
			c-1.642,0-1.705,0.127-1.705,1.705c0,6.375,3.726,11.805,10.479,11.805c2.082,0,3.85-0.632,5.807-3.095
			c0.631-0.188,1.072,0.188,1.137,0.759c-2.084,4.293-6.629,5.87-9.912,5.87c-4.102,0-7.32-1.769-9.15-4.166
			c-1.896-2.463-2.651-5.429-2.651-8.207c0-7.764,5.113-14.266,12.688-14.266c5.43,0,8.963,3.725,8.963,7.512
			c0,0.883-0.125,1.389-0.252,1.641c-0.189,0.379-1.072,0.441-3.726,0.441L168.327,49.059L168.327,49.059z M172.24,47.167
			c4.672,0,6.061-0.254,6.564-0.631c0.188-0.127,0.379-0.379,0.379-1.201c0-1.766-1.199-3.977-4.861-3.977
			c-3.723,0-6.942,3.41-7.006,5.492c0,0.127,0,0.316,0.441,0.316L172.24,47.167L172.24,47.167z"/>
		<path fill="#1D1D1B" d="M226.203,93.246h-0.055c-0.662,1.553-1.695,2.221-3.365,2.221c-2.836,0-3.658-1.846-3.658-4.441
			c0-4.096,3.978-4.283,7.023-4.203c0.055-1.793,0.08-3.746-2.252-3.746c-1.457,0-2.228,0.99-2.094,2.408h-2.359
			c0.104-3.022,1.697-4.068,4.533-4.068c3.444,0,4.346,1.793,4.346,4.068v6.504c0,1.07,0.107,2.168,0.266,3.211h-2.385V93.246
			L226.203,93.246z M221.299,91.186c0,1.311,0.638,2.488,2.095,2.488c1.326,0,2.969-0.83,2.756-5.191
			C224.082,88.508,221.299,88.322,221.299,91.186z M239.135,95.199v-9.367c0-1.364-0.37-2.623-2.12-2.623
			c-0.662,0-1.564,0.402-1.882,0.91c-0.397,0.67-0.504,1.474-0.504,1.98v9.1h-2.174V84.494c0-0.938-0.053-1.873-0.133-2.812h2.307
			v1.687h0.054c0.637-1.445,1.774-1.953,3.34-1.953c1.219,0,2.623,0.508,3.127,1.74c0.742-1.445,1.961-1.74,3.182-1.74
			c1.404,0,3.656,0.322,3.656,3.506v10.277h-2.174v-9.367c0-1.365-0.371-2.623-2.119-2.623c-0.822,0-1.062,0.027-1.646,0.51
			c-0.635,0.535-0.739,1.873-0.739,2.381v9.1H239.135z M260.201,86.314v8.885h-2.438V75.877h6.6c3.393,0,4.586,2.408,4.586,4.816
			c0,2.274-1.246,4.016-3.498,4.416v0.055c2.199,0.348,2.994,1.096,3.127,4.977c0.027,0.83,0.291,3.855,0.662,5.059h-2.543
			c-0.689-1.338-0.531-3.854-0.742-6.424c-0.186-2.354-2.067-2.461-2.891-2.461H260.201L260.201,86.314z M260.201,84.174h3.656
			c1.75,0,2.598-1.527,2.598-3.213c0-1.391-0.688-2.943-2.57-2.943h-3.684V84.174z M272.125,75.877h2.438v2.354h-2.438V75.877z
			 M274.43,95.199h-2.173V81.684h2.173V95.199z M280.313,89.15c0,3.773,1.008,4.523,2.705,4.523c1.483,0,2.252-1.203,2.332-2.568
			h2.385c-0.025,2.996-1.855,4.361-4.664,4.361c-2.836,0-5.09-0.855-5.09-6.824c0-3.961,0.451-7.227,5.09-7.227
			c3.816,0,4.77,2.115,4.77,6.584v1.15H280.313L280.313,89.15z M285.535,87.492c0-3.937-1.088-4.416-2.678-4.416
			c-1.377,0-2.519,0.668-2.545,4.416H285.535z M298.52,75.877h2.174v19.322h-2.174v-1.605h-0.053
			c-0.742,1.258-1.671,1.873-3.074,1.873c-2.146,0-4.32-0.855-4.32-6.797c0-3.373,0.105-7.254,4.426-7.254
			c1.271,0,2.199,0.563,2.941,1.633h0.08V75.877L298.52,75.877z M296.002,83.209c-2.332,0-2.649,1.873-2.649,5.486
			c0,2.035,0,4.979,2.729,4.979c2.438,0,2.438-3.051,2.438-5.781C298.52,86.1,298.414,83.209,296.002,83.209z M307.053,95.199
			h-2.174V75.877h2.174v7.172h0.078c0.741-1.07,1.67-1.633,2.942-1.633c4.32,0,4.426,3.881,4.426,7.254
			c0,5.941-2.174,6.797-4.319,6.797c-1.404,0-2.332-0.615-3.074-1.873h-0.053V95.199L307.053,95.199z M309.49,93.674
			c2.73,0,2.73-2.943,2.73-4.979c0-3.613-0.318-5.486-2.65-5.486c-2.412,0-2.518,2.891-2.518,4.684
			C307.053,89.953,306.813,93.674,309.49,93.674z M320.063,89.15c0,3.773,1.008,4.523,2.705,4.523c1.484,0,2.252-1.203,2.332-2.568
			h2.385c-0.024,2.996-1.854,4.361-4.664,4.361c-2.836,0-5.09-0.855-5.09-6.824c0-3.961,0.451-7.227,5.09-7.227
			c3.816,0,4.771,2.115,4.771,6.584v1.15H320.063L320.063,89.15z M325.285,87.492c0-3.937-1.088-4.416-2.678-4.416
			c-1.377,0-2.518,0.668-2.545,4.416H325.285z M333.445,83.719h0.053c0.902-2.063,2.017-2.303,4.136-2.303v2.275
			c-0.187-0.027-0.396-0.056-0.582-0.08c-0.187-0.027-0.371-0.056-0.584-0.056c-2.412,0-3.021,1.849-3.021,3.668v7.976h-2.172
			V81.684h2.172L333.445,83.719L333.445,83.719z M347.094,81.684h2.174v14.881c0,3.025-1.988,3.748-4.93,3.748
			c-2.228,0-4.24-1.125-4.056-3.613h2.438c0.026,1.258,0.848,1.953,2.041,1.953c1.51,0,2.332-0.938,2.332-2.328v-2.811h-0.08
			c-0.558,1.07-1.775,1.686-2.941,1.686c-3.631,0-4.346-3.158-4.346-7.172c0-6.209,3.1-6.611,4.188-6.611
			c1.404,0,2.519,0.615,3.128,1.929h0.053L347.094,81.684L347.094,81.684z M344.55,83.236c-2.465,0-2.543,2.998-2.543,4.791
			c0,4.336,0.979,5.353,2.596,5.353c2.625,0,2.545-3.132,2.545-5.005C347.146,86.367,347.279,83.236,344.55,83.236z M208.061,41.909
			L194.813,62.26h13.543v2.959h-16.688v-3.848l12.951-19.833v-0.074h-12.508v-2.959h15.949L208.061,41.909L208.061,41.909z
			 M213.461,65.219V38.505h13.765v2.959h-10.359v8.586h9.621v2.959h-9.621v9.251h10.582v2.959H213.461z M251.646,38.505v26.714
			h-4.662l-10.547-23.164h-0.072v23.164h-3.035V38.505h4.812l10.397,22.866h0.072V38.505H251.646z M273.994,38.505v2.959h-7.031
			v23.755h-3.403V41.464h-7.031v-2.959H273.994z M282.021,52.934v12.285h-3.404V38.505h9.215c4.736,0,6.4,3.33,6.4,6.66
			c0,3.145-1.738,5.551-4.883,6.105v0.074c3.069,0.48,4.18,1.518,4.364,6.882c0.037,1.146,0.408,5.328,0.927,6.992h-3.554
			c-0.963-1.851-0.739-5.328-1.035-8.88c-0.26-3.256-2.887-3.404-4.034-3.404H282.021z M282.021,49.975h5.106
			c2.441,0,3.625-2.109,3.625-4.441c0-1.924-0.961-4.07-3.588-4.07h-5.145L282.021,49.975L282.021,49.975z M300.337,38.505h3.403
			v17.094c0,5.847,1.777,7.328,4.996,7.328s4.996-1.479,4.996-7.328V38.505h3.404v16.947c0,7.4-2.738,10.322-8.4,10.322
			s-8.399-2.922-8.399-10.322V38.505z M327.052,65.219h-3.183V38.505h5.515l6.733,22.423h0.074l6.807-22.423h5.625v26.714h-3.403
			V41.464h-0.074l-7.475,23.755h-3.22l-7.325-23.755h-0.074V65.219L327.052,65.219z"/>
	</g>
</g>
</svg>
