<?xml version="1.0" encoding="utf-8"?>
<!-- Generator: Adobe Illustrator 16.0.0, SVG Export Plug-In . SVG Version: 6.00 Build 0)  -->
<!DOCTYPE svg PUBLIC "-//W3C//DTD SVG 1.1//EN" "http://www.w3.org/Graphics/SVG/1.1/DTD/svg11.dtd">
<svg version="1.1" id="Ebene_1" xmlns="http://www.w3.org/2000/svg" xmlns:xlink="http://www.w3.org/1999/xlink" x="0px" y="0px"
	 width="340.057px" height="85px" viewBox="14.972 17.699 340.057 85" enable-background="new 14.972 17.699 340.057 85"
	 xml:space="preserve">
<g>
	<g>
		<path fill="#1D1D1B" d="M231.965,93.246h-0.055c-0.662,1.553-1.695,2.221-3.365,2.221c-2.836,0-3.657-1.846-3.657-4.441
			c0-4.096,3.977-4.283,7.022-4.203c0.055-1.793,0.08-3.746-2.252-3.746c-1.457,0-2.227,0.99-2.094,2.408h-2.359
			c0.105-3.022,1.697-4.068,4.533-4.068c3.445,0,4.346,1.793,4.346,4.068v6.504c0,1.07,0.107,2.168,0.267,3.211h-2.386V93.246
			L231.965,93.246z M227.061,91.186c0,1.311,0.637,2.488,2.094,2.488c1.326,0,2.969-0.83,2.756-5.191
			C229.844,88.508,227.061,88.322,227.061,91.186z M244.896,95.199v-9.367c0-1.364-0.371-2.623-2.121-2.623
			c-0.662,0-1.564,0.402-1.881,0.91c-0.398,0.67-0.504,1.474-0.504,1.98v9.1h-2.175V84.494c0-0.938-0.053-1.873-0.133-2.812h2.308
			v1.687h0.053c0.637-1.445,1.774-1.953,3.34-1.953c1.219,0,2.623,0.508,3.127,1.74c0.742-1.445,1.961-1.74,3.182-1.74
			c1.404,0,3.656,0.322,3.656,3.506v10.277h-2.174v-9.367c0-1.365-0.371-2.623-2.119-2.623c-0.822,0-1.061,0.027-1.645,0.51
			c-0.636,0.535-0.74,1.873-0.74,2.381v9.1H244.896z M265.963,86.314v8.885h-2.438V75.877h6.6c3.394,0,4.586,2.408,4.586,4.816
			c0,2.274-1.246,4.016-3.498,4.416v0.055c2.199,0.348,2.994,1.096,3.127,4.977c0.027,0.83,0.291,3.855,0.662,5.059h-2.543
			c-0.688-1.338-0.53-3.854-0.742-6.424c-0.186-2.354-2.067-2.461-2.891-2.461H265.963L265.963,86.314z M265.963,84.174h3.656
			c1.75,0,2.598-1.527,2.598-3.213c0-1.391-0.688-2.943-2.569-2.943h-3.685V84.174z M277.887,75.877h2.438v2.354h-2.438V75.877z
			 M280.191,95.199h-2.172V81.684h2.172V95.199z M286.074,89.15c0,3.773,1.008,4.523,2.705,4.523c1.484,0,2.252-1.203,2.332-2.568
			h2.385c-0.024,2.996-1.854,4.361-4.664,4.361c-2.836,0-5.09-0.855-5.09-6.824c0-3.961,0.451-7.227,5.09-7.227
			c3.816,0,4.771,2.115,4.771,6.584v1.15H286.074L286.074,89.15z M291.297,87.492c0-3.937-1.088-4.416-2.678-4.416
			c-1.377,0-2.518,0.668-2.545,4.416H291.297z M304.281,75.877h2.174v19.322h-2.174v-1.605h-0.053
			c-0.742,1.258-1.67,1.873-3.074,1.873c-2.146,0-4.32-0.855-4.32-6.797c0-3.373,0.105-7.254,4.427-7.254
			c1.271,0,2.198,0.563,2.94,1.633h0.08V75.877L304.281,75.877z M301.764,83.209c-2.332,0-2.65,1.873-2.65,5.486
			c0,2.035,0,4.979,2.73,4.979c2.438,0,2.438-3.051,2.438-5.781C304.281,86.1,304.177,83.209,301.764,83.209z M312.814,95.199
			h-2.174V75.877h2.174v7.172h0.078c0.742-1.07,1.67-1.633,2.943-1.633c4.319,0,4.426,3.881,4.426,7.254
			c0,5.941-2.174,6.797-4.32,6.797c-1.404,0-2.332-0.615-3.074-1.873h-0.053V95.199L312.814,95.199z M315.253,93.674
			c2.729,0,2.729-2.943,2.729-4.979c0-3.613-0.318-5.486-2.65-5.486c-2.411,0-2.518,2.891-2.518,4.684
			C312.814,89.953,312.574,93.674,315.253,93.674z M325.824,89.15c0,3.773,1.008,4.523,2.705,4.523c1.484,0,2.252-1.203,2.332-2.568
			h2.385c-0.024,2.996-1.854,4.361-4.664,4.361c-2.836,0-5.09-0.855-5.09-6.824c0-3.961,0.451-7.227,5.09-7.227
			c3.816,0,4.771,2.115,4.771,6.584v1.15H325.824L325.824,89.15z M331.048,87.492c0-3.937-1.089-4.416-2.679-4.416
			c-1.377,0-2.518,0.668-2.545,4.416H331.048z M339.207,83.719h0.054c0.901-2.063,2.016-2.303,4.135-2.303v2.275
			c-0.186-0.027-0.396-0.056-0.582-0.08c-0.186-0.027-0.371-0.056-0.584-0.056c-2.412,0-3.021,1.849-3.021,3.668v7.976h-2.173
			V81.684h2.173v2.035H339.207z M352.855,81.684h2.174v14.881c0,3.025-1.988,3.748-4.93,3.748c-2.228,0-4.24-1.125-4.055-3.613
			h2.438c0.027,1.258,0.848,1.953,2.041,1.953c1.51,0,2.332-0.938,2.332-2.328v-2.811h-0.08c-0.557,1.07-1.774,1.686-2.94,1.686
			c-3.632,0-4.347-3.158-4.347-7.172c0-6.209,3.101-6.611,4.188-6.611c1.403,0,2.518,0.615,3.127,1.929h0.053L352.855,81.684
			L352.855,81.684z M350.311,83.236c-2.465,0-2.543,2.998-2.543,4.791c0,4.336,0.979,5.353,2.596,5.353
			c2.625,0,2.545-3.132,2.545-5.005C352.908,86.367,353.041,83.236,350.311,83.236z M213.82,41.908L200.574,62.26h13.543v2.959
			h-16.688v-3.848l12.95-19.833v-0.074h-12.506v-2.96h15.947V41.908L213.82,41.908z M219.221,65.219V38.504h13.766v2.96h-10.361
			v8.585h9.621v2.96h-9.621v9.251h10.584v2.959H219.221z M257.406,38.504v26.715h-4.662l-10.545-23.163h-0.074v23.163h-3.033V38.504
			h4.81l10.397,22.867h0.074V38.504H257.406z M279.754,38.504v2.96h-7.028v23.755h-3.404V41.464h-7.031v-2.96H279.754z
			 M287.783,52.935v12.284h-3.404V38.504h9.213c4.736,0,6.402,3.33,6.402,6.66c0,3.146-1.739,5.551-4.885,6.105v0.074
			c3.072,0.481,4.182,1.518,4.367,6.883c0.037,1.146,0.406,5.328,0.924,6.992h-3.553c-0.961-1.851-0.738-5.328-1.035-8.88
			c-0.26-3.256-2.888-3.404-4.033-3.404L287.783,52.935L287.783,52.935z M287.783,49.975h5.105c2.442,0,3.627-2.109,3.627-4.44
			c0-1.924-0.963-4.07-3.591-4.07h-5.143L287.783,49.975L287.783,49.975z M306.098,38.504h3.404v17.095
			c0,5.847,1.774,7.327,4.995,7.327c3.22,0,4.994-1.48,4.994-7.327V38.504h3.404v16.947c0,7.4-2.738,10.323-8.398,10.323
			c-5.661,0-8.399-2.923-8.399-10.323V38.504L306.098,38.504z M332.813,65.219h-3.184V38.504h5.514l6.734,22.424h0.073l6.81-22.424
			h5.625v26.715h-3.404V41.464h-0.074l-7.475,23.755h-3.219l-7.328-23.755h-0.072V65.219L332.813,65.219z"/>
		<g>
			<g>
				<path fill="#9F0649" d="M70.497,29.617c0-3.724-0.063-4.103-1.957-5.238L67.909,24c-0.314-0.189-0.314-1.073,0-1.263
					c1.578-0.505,4.545-1.452,6.817-2.651c0.253,0,0.505,0.126,0.631,0.379c-0.063,1.894-0.188,5.05-0.188,7.827v13.257
					c0,0.568,0.063,1.072,0.252,1.199c2.272-1.768,5.304-3.283,8.522-3.283c5.996,0,8.143,3.725,8.143,8.145V58.15
					c0,4.545,0.126,5.238,2.399,5.492l1.704,0.189c0.44,0.313,0.314,1.389-0.126,1.578c-2.272-0.127-4.104-0.189-6.313-0.189
					c-2.272,0-4.167,0.063-5.871,0.189c-0.441-0.189-0.567-1.265-0.126-1.578l1.263-0.189c2.336-0.379,2.398-0.947,2.398-5.492
					v-9.027c0-4.039-1.957-6.754-5.997-6.754c-2.146,0-3.787,0.758-4.924,1.705c-1.137,0.946-1.325,1.262-1.325,3.471V58.15
					c0,4.545,0.126,5.176,2.398,5.492l1.325,0.189c0.441,0.252,0.315,1.389-0.126,1.578c-1.895-0.127-3.726-0.189-5.935-0.189
					c-2.271,0-4.166,0.063-6.187,0.189c-0.441-0.189-0.568-1.265-0.126-1.578l1.578-0.189c2.335-0.254,2.397-0.947,2.397-5.492
					V29.617H70.497z"/>
			</g>
			<g>
				<path fill="#9F0649" d="M98.97,78.225c0-1.705,1.137-2.525,2.524-2.525h1.199c1.01,0,1.642-0.44,2.083-1.137
					c1.831-2.84,3.093-5.492,3.661-7.006c0.188-0.506,0.632-1.832,0.632-2.715c0-1.264-0.253-2.02-1.073-4.355l-4.924-13.509
					c-1.073-2.967-1.516-4.481-3.725-4.924l-1.578-0.315c-0.379-0.316-0.315-1.389,0.188-1.578c2.021,0.126,3.914,0.189,5.997,0.189
					c1.704,0,3.473-0.063,5.491-0.189c0.506,0.189,0.568,1.262,0.127,1.578l-1.578,0.315c-0.884,0.189-1.389,0.378-1.389,0.82
					c0,0.758,1.451,4.86,1.83,5.935l2.021,5.807c0.379,1.009,1.578,4.355,1.83,4.482c0.189-0.127,1.199-2.084,2.336-4.672
					l2.146-4.986c1.389-3.283,2.209-5.618,2.209-6.313c0-0.441-0.379-0.884-1.516-1.073l-1.957-0.315
					c-0.441-0.316-0.379-1.389,0.126-1.578c2.021,0.126,3.914,0.189,5.557,0.189c1.578,0,3.028-0.063,4.797-0.189
					c0.505,0.252,0.568,1.199,0.127,1.578l-1.073,0.189c-2.083,0.379-3.22,2.209-5.366,6.691l-3.534,7.259
					c-2.083,4.229-7.26,15.214-10.354,22.093c-1.073,2.4-2.588,2.969-4.04,2.969C99.917,80.939,98.97,79.803,98.97,78.225z"/>
			</g>
			<g>
				<path fill="#9F0649" d="M142.403,40.602c0.568,1.389,1.011,3.409,1.011,5.113c-0.253,0.441-1.2,0.568-1.516,0.189
					c-1.073-2.777-2.967-4.608-5.556-4.608c-2.462,0-4.039,1.578-4.039,3.851c0,2.588,2.65,3.977,4.859,5.24
					c3.346,1.893,6.438,4.039,6.438,8.521c0,4.797-4.418,7.194-9.09,7.194c-2.968,0-5.177-0.631-6.755-1.894
					c-0.505-1.198-0.884-4.293-0.758-6.377c0.315-0.379,1.137-0.44,1.452-0.063c1.073,3.473,3.093,6.502,6.691,6.502
					c2.271,0,4.229-1.326,4.229-4.041c0-2.902-2.524-4.48-4.86-5.807c-3.661-2.082-6.249-4.292-6.249-7.764
					c0-4.608,3.786-7.197,8.585-7.197C139.5,39.465,141.835,40.097,142.403,40.602z"/>
			</g>
			<g>
				<path fill="#9F0649" d="M151.685,47.104c0-2.462,0-2.777-1.705-3.914l-0.568-0.379c-0.252-0.252-0.252-0.946,0.063-1.136
					c1.452-0.505,5.05-2.146,6.502-3.093c0.314,0,0.567,0.126,0.631,0.379c-0.126,2.209-0.252,5.238-0.252,7.827V58.15
					c0,4.545,0.126,5.176,2.397,5.491l1.326,0.188c0.441,0.314,0.315,1.39-0.127,1.578c-1.894-0.127-3.724-0.188-5.934-0.188
					c-2.272,0-4.166,0.063-5.935,0.188c-0.44-0.188-0.567-1.264-0.126-1.578l1.325-0.188c2.336-0.315,2.399-0.946,2.399-5.491
					V47.104H151.685z"/>
				<path fill="#9F0649" d="M156.924,29.114c0,2.271-1.577,3.282-3.346,3.282c-1.957,0-3.22-1.452-3.22-3.156
					c0-2.083,1.515-3.409,3.409-3.409C155.662,25.83,156.924,27.346,156.924,29.114z"/>
			</g>
			<g>
				<path fill="#9F0649" d="M167.278,29.617c0-3.724-0.063-4.103-1.957-5.238L164.69,24c-0.315-0.189-0.315-1.073,0-1.263
					c1.578-0.505,4.545-1.452,6.816-2.651c0.254,0,0.506,0.126,0.632,0.379c-0.063,1.894-0.188,5.05-0.188,7.827v21.652
					c0,0.821,0.063,0.946,1.136,0.946c1.39,0,2.588-0.693,4.293-2.461l2.588-2.777c1.769-1.895,2.209-2.589,2.209-2.904
					c0-0.316-0.314-0.505-1.389-0.631l-1.515-0.189c-0.568-0.189-0.568-1.389,0-1.578h1.452c2.776,0,6.502-0.127,10.035-0.506
					c0.443,0.189,0.507,1.264,0.128,1.578l-2.021,0.379c-1.264,0.253-2.336,0.885-3.977,2.21c-2.463,1.956-4.608,4.229-5.744,5.302
					c-0.758,0.695-0.821,1.011-0.442,1.516c1.073,1.451,2.083,2.651,4.229,5.05c2.462,2.775,4.67,5.238,5.934,6.438
					c0.883,0.82,2.146,1.199,3.283,1.389l0.883,0.127c0.441,0.314,0.379,1.39-0.127,1.578c-1.83-0.127-3.977-0.188-5.996-0.188
					c-2.525,0-4.735,0.063-6.564,0.188c-0.506-0.254-0.568-1.326-0.128-1.578l1.138-0.188c0.946-0.127,1.578-0.254,1.578-0.631
					c0-0.379-0.253-0.821-1.073-1.769l-6.754-7.828c-0.568-0.631-1.264-0.884-1.957-0.884c-1.137,0-1.199,0.189-1.199,2.146v3.472
					c0,4.545,0.126,5.176,2.398,5.492l1.515,0.189c0.442,0.313,0.314,1.389-0.126,1.578c-2.083-0.127-3.914-0.189-6.123-0.189
					c-2.272,0-4.166,0.063-6.062,0.189c-0.44-0.189-0.566-1.265-0.063-1.578l1.389-0.189c2.335-0.316,2.398-0.947,2.398-5.492
					L167.278,29.617L167.278,29.617z"/>
			</g>
		</g>
		<path fill="#9F0649" d="M36.257,35.469c0-4.457,0.854-7.635,2.558-9.528c1.704-1.893,4.087-2.84,7.146-2.84
			c4.431,0,8.37,1.915,11.824,5.747c3.453,3.832,5.179,8.604,5.179,14.314c0,3.817-0.938,7.539-2.818,11.167
			c-1.879,3.626-4.319,6.309-7.321,8.041c-3.001,1.734-6.935,2.791-11.801,3.17v31.699h-4.765L36.257,35.469L36.257,35.469z
			 M41.021,63.005c2.942-0.32,5.317-1.005,7.124-2.056c2.507-1.426,4.415-3.49,5.726-6.184c1.313-2.695,1.967-5.907,1.967-9.638
			c0-5.274-1.324-9.646-3.977-13.112c-1.922-2.506-4.123-3.76-6.6-3.76c-1.254,0-2.273,0.548-3.062,1.639
			c-0.786,1.094-1.18,3.418-1.18,6.972L41.021,63.005L41.021,63.005z"/>
		
			<linearGradient id="SVGID_1_" gradientUnits="userSpaceOnUse" x1="307.0955" y1="-359.5581" x2="307.0955" y2="-317.1191" gradientTransform="matrix(1 0 0 -1 -281.4805 -294.0195)">
			<stop  offset="0" style="stop-color:#9F0649"/>
			<stop  offset="1" style="stop-color:#FFFFFF;stop-opacity:0"/>
		</linearGradient>
		<path fill="url(#SVGID_1_)" d="M36.257,65.539c-4.457-0.379-8.181-1.441-11.167-3.19c-2.985-1.747-5.418-4.415-7.299-7.997
			c-1.879-3.585-2.818-7.284-2.818-11.103c0-3.234,0.619-6.235,1.857-9.005c1.239-2.767,2.717-4.952,4.438-6.555
			c1.719-1.603,3.488-2.746,5.31-3.432c1.823-0.685,4.058-1.07,6.71-1.157v1.66c-2.623,0.204-4.939,1.69-6.949,4.459
			c-2.012,2.768-3.016,7.182-3.016,13.243c0,4.4,0.684,8.151,2.054,11.254c1.369,3.104,3.088,5.427,5.156,6.972
			c1.341,0.99,3.25,1.792,5.726,2.404L36.257,65.539L36.257,65.539z"/>
	</g>
</g>
</svg>
