<?xml version="1.0" encoding="utf-8"?>
<!-- Generator: Adobe Illustrator 16.0.0, SVG Export Plug-In . SVG Version: 6.00 Build 0)  -->
<!DOCTYPE svg PUBLIC "-//W3C//DTD SVG 1.1//EN" "http://www.w3.org/Graphics/SVG/1.1/DTD/svg11.dtd">
<svg version="1.1" id="Ebene_1" xmlns="http://www.w3.org/2000/svg" xmlns:xlink="http://www.w3.org/1999/xlink" x="0px" y="0px"
	 width="370px" height="110px" viewBox="0 0 370 110" enable-background="new 0 0 370 110" xml:space="preserve">
<g>
	<g>
		<path fill="#1D1D1B" d="M231.965,90.859h-0.055c-0.662,1.553-1.695,2.221-3.365,2.221c-2.836,0-3.658-1.846-3.658-4.441
			c0-4.096,3.977-4.283,7.023-4.203c0.055-1.793,0.08-3.746-2.252-3.746c-1.457,0-2.227,0.99-2.094,2.408h-2.359
			c0.105-3.023,1.697-4.068,4.533-4.068c3.445,0,4.346,1.793,4.346,4.068v6.504c0,1.07,0.107,2.168,0.266,3.211h-2.385V90.859z
			 M227.061,88.799c0,1.311,0.637,2.488,2.094,2.488c1.326,0,2.969-0.83,2.756-5.191C229.844,86.121,227.061,85.936,227.061,88.799z
			 M244.896,92.813v-9.367c0-1.365-0.371-2.623-2.121-2.623c-0.662,0-1.564,0.402-1.881,0.91c-0.398,0.67-0.504,1.473-0.504,1.98
			v9.1h-2.174V82.107c0-0.938-0.053-1.873-0.133-2.811h2.307v1.686h0.053c0.637-1.445,1.775-1.953,3.34-1.953
			c1.219,0,2.623,0.508,3.127,1.74c0.742-1.445,1.961-1.74,3.182-1.74c1.404,0,3.656,0.322,3.656,3.506v10.277h-2.174v-9.367
			c0-1.365-0.371-2.623-2.119-2.623c-0.822,0-1.061,0.027-1.645,0.51c-0.635,0.535-0.74,1.873-0.74,2.381v9.1H244.896z
			 M265.963,83.928v8.885h-2.439V73.49h6.6c3.393,0,4.586,2.408,4.586,4.816c0,2.275-1.246,4.016-3.498,4.416v0.055
			c2.199,0.348,2.994,1.096,3.127,4.977c0.027,0.83,0.291,3.855,0.662,5.059h-2.543c-0.689-1.338-0.531-3.854-0.742-6.424
			c-0.186-2.354-2.068-2.461-2.891-2.461H265.963z M265.963,81.787h3.656c1.75,0,2.598-1.527,2.598-3.213
			c0-1.391-0.688-2.943-2.57-2.943h-3.684V81.787z M277.887,73.49h2.438v2.354h-2.438V73.49z M280.191,92.813h-2.172V79.297h2.172
			V92.813z M286.074,86.764c0,3.773,1.008,4.523,2.705,4.523c1.484,0,2.252-1.203,2.332-2.568h2.385
			c-0.025,2.996-1.855,4.361-4.664,4.361c-2.836,0-5.09-0.855-5.09-6.824c0-3.961,0.451-7.227,5.09-7.227
			c3.816,0,4.77,2.115,4.77,6.584v1.15H286.074z M291.297,85.105c0-3.936-1.088-4.416-2.678-4.416c-1.377,0-2.518,0.668-2.545,4.416
			H291.297z M304.281,73.49h2.174v19.322h-2.174v-1.605h-0.053c-0.742,1.258-1.67,1.873-3.074,1.873c-2.146,0-4.32-0.855-4.32-6.797
			c0-3.373,0.105-7.254,4.426-7.254c1.271,0,2.199,0.563,2.941,1.633h0.08V73.49z M301.764,80.822c-2.332,0-2.65,1.873-2.65,5.486
			c0,2.035,0,4.979,2.73,4.979c2.438,0,2.438-3.051,2.438-5.781C304.281,83.713,304.176,80.822,301.764,80.822z M312.814,92.813
			h-2.174V73.49h2.174v7.172h0.078c0.742-1.07,1.67-1.633,2.943-1.633c4.32,0,4.426,3.881,4.426,7.254
			c0,5.941-2.174,6.797-4.32,6.797c-1.404,0-2.332-0.615-3.074-1.873h-0.053V92.813z M315.252,91.287c2.73,0,2.73-2.943,2.73-4.979
			c0-3.613-0.318-5.486-2.65-5.486c-2.412,0-2.518,2.891-2.518,4.684C312.814,87.566,312.574,91.287,315.252,91.287z
			 M325.824,86.764c0,3.773,1.008,4.523,2.705,4.523c1.484,0,2.252-1.203,2.332-2.568h2.385c-0.025,2.996-1.855,4.361-4.664,4.361
			c-2.836,0-5.09-0.855-5.09-6.824c0-3.961,0.451-7.227,5.09-7.227c3.816,0,4.77,2.115,4.77,6.584v1.15H325.824z M331.047,85.105
			c0-3.936-1.088-4.416-2.678-4.416c-1.377,0-2.518,0.668-2.545,4.416H331.047z M339.207,81.332h0.053
			c0.902-2.063,2.016-2.303,4.135-2.303v2.275c-0.186-0.027-0.396-0.055-0.582-0.08c-0.186-0.027-0.371-0.055-0.584-0.055
			c-2.412,0-3.021,1.848-3.021,3.668v7.975h-2.172V79.297h2.172V81.332z M352.855,79.297h2.174v14.881
			c0,3.025-1.988,3.748-4.93,3.748c-2.227,0-4.24-1.125-4.055-3.613h2.438c0.027,1.258,0.848,1.953,2.041,1.953
			c1.51,0,2.332-0.938,2.332-2.328v-2.811h-0.08c-0.557,1.07-1.775,1.686-2.941,1.686c-3.631,0-4.346-3.158-4.346-7.172
			c0-6.209,3.1-6.611,4.188-6.611c1.404,0,2.518,0.615,3.127,1.928h0.053V79.297z M350.311,80.85c-2.465,0-2.543,2.998-2.543,4.791
			c0,4.336,0.98,5.352,2.596,5.352c2.625,0,2.545-3.131,2.545-5.004C352.908,83.98,353.041,80.85,350.311,80.85z M213.82,39.521
			l-13.246,20.352h13.543v2.959h-16.689v-3.848l12.951-19.833v-0.074h-12.506v-2.96h15.947V39.521z M219.221,62.832V36.117h13.766
			v2.96h-10.361v8.585h9.621v2.96h-9.621v9.251h10.584v2.959H219.221z M257.406,36.117v26.715h-4.662l-10.545-23.163h-0.074v23.163
			h-3.033V36.117h4.809l10.398,22.867h0.074V36.117H257.406z M279.754,36.117v2.96h-7.029v23.755h-3.404V39.077h-7.031v-2.96
			H279.754z M287.783,50.548v12.284h-3.404V36.117h9.213c4.736,0,6.402,3.33,6.402,6.66c0,3.146-1.74,5.551-4.885,6.105v0.074
			c3.072,0.481,4.182,1.518,4.367,6.883c0.037,1.146,0.406,5.328,0.924,6.992h-3.553c-0.961-1.85-0.738-5.328-1.035-8.88
			c-0.26-3.256-2.887-3.404-4.033-3.404H287.783z M287.783,47.588h5.105c2.443,0,3.627-2.109,3.627-4.44
			c0-1.924-0.963-4.07-3.59-4.07h-5.143V47.588z M306.098,36.117h3.404v17.095c0,5.847,1.775,7.327,4.996,7.327
			c3.219,0,4.994-1.48,4.994-7.327V36.117h3.404v16.947c0,7.4-2.738,10.322-8.398,10.322c-5.662,0-8.4-2.922-8.4-10.322V36.117z
			 M332.813,62.832h-3.184V36.117h5.514l6.734,22.424h0.074l6.809-22.424h5.625v26.715h-3.404V39.077h-0.074l-7.475,23.755h-3.219
			l-7.328-23.755h-0.072V62.832z"/>
		<g>
			<g>
				<path fill="#9F0649" d="M70.497,27.23c0-3.724-0.063-4.103-1.957-5.238l-0.631-0.379c-0.315-0.189-0.315-1.073,0-1.263
					c1.578-0.505,4.545-1.452,6.817-2.651c0.253,0,0.505,0.126,0.631,0.379c-0.063,1.894-0.188,5.05-0.188,7.827v13.257
					c0,0.568,0.063,1.072,0.252,1.199c2.272-1.768,5.303-3.283,8.522-3.283c5.996,0,8.143,3.725,8.143,8.145v10.541
					c0,4.545,0.126,5.238,2.399,5.492l1.704,0.189c0.441,0.314,0.315,1.389-0.126,1.578c-2.272-0.127-4.104-0.189-6.313-0.189
					c-2.273,0-4.167,0.063-5.871,0.189c-0.442-0.189-0.568-1.264-0.126-1.578l1.262-0.189c2.336-0.379,2.399-0.947,2.399-5.492
					v-9.027c0-4.039-1.957-6.754-5.997-6.754c-2.146,0-3.787,0.758-4.924,1.705c-1.137,0.946-1.325,1.262-1.325,3.471v10.605
					c0,4.545,0.126,5.176,2.398,5.492l1.325,0.189c0.442,0.252,0.316,1.389-0.126,1.578c-1.894-0.127-3.725-0.189-5.934-0.189
					c-2.272,0-4.166,0.063-6.187,0.189c-0.441-0.189-0.568-1.264-0.126-1.578l1.578-0.189c2.335-0.254,2.398-0.947,2.398-5.492
					V27.23z"/>
			</g>
			<g>
				<path fill="#9F0649" d="M98.97,75.838c0-1.705,1.137-2.525,2.525-2.525h1.199c1.01,0,1.642-0.441,2.083-1.137
					c1.831-2.84,3.093-5.492,3.661-7.006c0.189-0.506,0.632-1.832,0.632-2.715c0-1.264-0.253-2.02-1.073-4.355l-4.924-13.509
					c-1.073-2.967-1.516-4.481-3.725-4.924l-1.578-0.315c-0.379-0.316-0.315-1.389,0.189-1.578c2.02,0.126,3.914,0.189,5.997,0.189
					c1.704,0,3.472-0.063,5.491-0.189c0.506,0.189,0.568,1.262,0.127,1.578l-1.578,0.315c-0.884,0.189-1.389,0.378-1.389,0.82
					c0,0.758,1.451,4.86,1.83,5.935l2.021,5.807c0.379,1.01,1.578,4.355,1.83,4.482c0.189-0.127,1.199-2.084,2.336-4.672
					l2.146-4.986c1.389-3.283,2.209-5.618,2.209-6.313c0-0.441-0.379-0.884-1.515-1.073l-1.957-0.315
					c-0.442-0.316-0.379-1.389,0.126-1.578c2.021,0.126,3.914,0.189,5.556,0.189c1.578,0,3.029-0.063,4.797-0.189
					c0.505,0.252,0.568,1.199,0.127,1.578l-1.073,0.189c-2.083,0.379-3.22,2.209-5.366,6.691l-3.535,7.259
					c-2.083,4.229-7.259,15.214-10.353,22.093c-1.073,2.4-2.588,2.969-4.04,2.969C99.917,78.553,98.97,77.416,98.97,75.838z"/>
			</g>
			<g>
				<path fill="#9F0649" d="M142.403,38.215c0.568,1.389,1.011,3.409,1.011,5.113c-0.253,0.441-1.2,0.568-1.516,0.189
					c-1.073-2.777-2.967-4.608-5.555-4.608c-2.462,0-4.04,1.578-4.04,3.851c0,2.588,2.651,3.977,4.86,5.24
					c3.346,1.893,6.438,4.039,6.438,8.521c0,4.797-4.418,7.195-9.09,7.195c-2.967,0-5.176-0.631-6.754-1.893
					c-0.505-1.199-0.884-4.293-0.758-6.377c0.315-0.379,1.136-0.441,1.452-0.063c1.073,3.473,3.093,6.502,6.691,6.502
					c2.272,0,4.229-1.326,4.229-4.041c0-2.902-2.525-4.48-4.861-5.807c-3.661-2.082-6.249-4.292-6.249-7.764
					c0-4.608,3.787-7.197,8.585-7.197C139.5,37.078,141.835,37.71,142.403,38.215z"/>
			</g>
			<g>
				<path fill="#9F0649" d="M151.685,44.717c0-2.462,0-2.777-1.705-3.914l-0.568-0.379c-0.252-0.252-0.252-0.946,0.063-1.136
					c1.452-0.505,5.05-2.146,6.502-3.093c0.315,0,0.568,0.126,0.631,0.379c-0.126,2.209-0.252,5.238-0.252,7.827v11.362
					c0,4.545,0.126,5.176,2.398,5.492l1.326,0.189c0.441,0.314,0.315,1.389-0.127,1.578c-1.894-0.127-3.724-0.189-5.934-0.189
					c-2.272,0-4.166,0.063-5.934,0.189c-0.441-0.189-0.568-1.264-0.126-1.578l1.325-0.189c2.336-0.316,2.399-0.947,2.399-5.492
					V44.717z"/>
				<path fill="#9F0649" d="M156.924,26.727c0,2.271-1.578,3.282-3.346,3.282c-1.957,0-3.22-1.452-3.22-3.156
					c0-2.083,1.515-3.409,3.409-3.409C155.662,23.443,156.924,24.959,156.924,26.727z"/>
			</g>
			<g>
				<path fill="#9F0649" d="M167.278,27.23c0-3.724-0.063-4.103-1.957-5.238l-0.631-0.379c-0.315-0.189-0.315-1.073,0-1.263
					c1.578-0.505,4.545-1.452,6.817-2.651c0.253,0,0.505,0.126,0.631,0.379c-0.063,1.894-0.188,5.05-0.188,7.827v21.652
					c0,0.821,0.063,0.946,1.136,0.946c1.389,0,2.588-0.693,4.293-2.461l2.588-2.777c1.768-1.895,2.209-2.589,2.209-2.904
					c0-0.316-0.315-0.505-1.389-0.631l-1.515-0.189c-0.568-0.189-0.568-1.389,0-1.578h1.452c2.777,0,6.502-0.127,10.036-0.506
					c0.443,0.189,0.506,1.264,0.127,1.578l-2.02,0.379c-1.264,0.253-2.336,0.885-3.977,2.21c-2.462,1.956-4.608,4.229-5.744,5.302
					c-0.758,0.695-0.821,1.011-0.442,1.516c1.073,1.451,2.083,2.651,4.229,5.05c2.462,2.776,4.67,5.239,5.934,6.438
					c0.883,0.82,2.146,1.199,3.283,1.389l0.883,0.127c0.441,0.314,0.379,1.389-0.127,1.578c-1.83-0.127-3.977-0.189-5.996-0.189
					c-2.525,0-4.735,0.063-6.565,0.189c-0.505-0.254-0.568-1.326-0.127-1.578l1.137-0.189c0.947-0.127,1.578-0.254,1.578-0.631
					c0-0.379-0.253-0.822-1.073-1.768l-6.754-7.828c-0.568-0.631-1.263-0.884-1.957-0.884c-1.137,0-1.199,0.189-1.199,2.146v3.472
					c0,4.545,0.126,5.176,2.398,5.492l1.515,0.189c0.442,0.314,0.315,1.389-0.126,1.578c-2.083-0.127-3.914-0.189-6.123-0.189
					c-2.272,0-4.166,0.063-6.061,0.189c-0.441-0.189-0.567-1.264-0.063-1.578l1.389-0.189c2.335-0.316,2.398-0.947,2.398-5.492
					V27.23z"/>
			</g>
		</g>
		<path fill="#9F0649" d="M36.257,33.082c0-4.457,0.853-7.635,2.557-9.528s4.087-2.84,7.146-2.84c4.43,0,8.37,1.915,11.824,5.747
			c3.453,3.832,5.179,8.604,5.179,14.314c0,3.817-0.939,7.539-2.819,11.167c-1.879,3.626-4.319,6.309-7.321,8.041
			c-3.001,1.734-6.935,2.79-11.801,3.169v31.699h-4.764V33.082z M41.021,60.618c2.943-0.32,5.318-1.005,7.124-2.055
			c2.507-1.427,4.415-3.49,5.726-6.184c1.312-2.695,1.967-5.907,1.967-9.638c0-5.274-1.325-9.646-3.977-13.112
			c-1.922-2.506-4.123-3.76-6.6-3.76c-1.253,0-2.273,0.548-3.061,1.639c-0.786,1.094-1.18,3.418-1.18,6.972V60.618z"/>
		<linearGradient id="SVGID_1_" gradientUnits="userSpaceOnUse" x1="25.6138" y1="63.1523" x2="25.6138" y2="20.7144">
			<stop  offset="0" style="stop-color:#9F0649"/>
			<stop  offset="1" style="stop-color:#FFFFFF;stop-opacity:0"/>
		</linearGradient>
		<path fill="url(#SVGID_1_)" d="M36.257,63.152c-4.457-0.379-8.181-1.441-11.167-3.19c-2.986-1.747-5.418-4.415-7.299-7.997
			c-1.879-3.585-2.819-7.284-2.819-11.103c0-3.234,0.62-6.235,1.858-9.005c1.239-2.767,2.717-4.952,4.437-6.555
			c1.719-1.603,3.489-2.746,5.31-3.432c1.823-0.685,4.058-1.07,6.71-1.157v1.66c-2.623,0.204-4.94,1.69-6.949,4.459
			c-2.012,2.768-3.016,7.182-3.016,13.243c0,4.4,0.684,8.151,2.054,11.254c1.369,3.104,3.088,5.427,5.156,6.972
			c1.341,0.99,3.25,1.792,5.726,2.404V63.152z"/>
	</g>
	<rect fill="none" width="370" height="110"/>
</g>
</svg>
